<svg width="172" height="189" viewBox="0 0 172 189" fill="none" xmlns="http://www.w3.org/2000/svg">
<rect width="171.452" height="187.931" fill="white"/>
<path d="M128.589 128.59C152.262 104.917 152.262 66.5361 128.589 42.8636C104.916 19.191 66.5356 19.191 42.863 42.8636C19.1904 66.5361 19.1904 104.917 42.863 128.59C66.5356 152.262 104.916 152.262 128.589 128.59Z" fill="#C91610"/>
<path d="M94.8295 85.1728H75.8915C70.3175 85.1728 65.5775 80.3718 64.7325 73.8708L62.9965 60.5138C61.9485 52.4468 67.2385 45.1738 74.1555 45.1738H96.7165C103.693 45.1738 108.999 52.5658 107.852 60.6848L105.965 74.0418C105.058 80.4648 100.349 85.1728 94.8295 85.1728Z" fill="#2E2E2E"/>
<path d="M100.714 73.1473C98.3996 76.8643 98.6226 81.2683 101.214 82.9833C103.805 84.6983 107.781 83.0743 110.096 79.3573C112.411 75.6403 112.187 71.2363 109.596 69.5213C107.006 67.8063 103.029 69.4303 100.714 73.1473Z" fill="#F5F5FF" stroke="#2E2E2E" stroke-width="0.5006" stroke-miterlimit="10" stroke-linecap="round" stroke-linejoin="round"/>
<path d="M107.646 71.3047C108.768 71.7427 109.621 72.8087 109.802 73.9987C109.984 75.1897 109.488 76.4607 108.547 77.2137" stroke="#2E2E2E" stroke-width="0.5006" stroke-miterlimit="10" stroke-linecap="round" stroke-linejoin="round"/>
<path d="M69.4676 73.1473C71.7816 76.8643 71.5586 81.2683 68.9676 82.9833C66.3766 84.6983 62.4006 83.0743 60.0856 79.3573C57.7706 75.6403 57.9946 71.2363 60.5856 69.5213C63.1766 67.8063 67.1526 69.4303 69.4676 73.1473Z" fill="#F5F5FF" stroke="#2E2E2E" stroke-width="0.5006" stroke-miterlimit="10" stroke-linecap="round" stroke-linejoin="round"/>
<path d="M62.5345 71.3047C61.4125 71.7427 60.5595 72.8087 60.3785 73.9987C60.1965 75.1897 60.6925 76.4607 61.6335 77.2137" stroke="#2E2E2E" stroke-width="0.5006" stroke-miterlimit="10" stroke-linecap="round" stroke-linejoin="round"/>
<path d="M97.9666 118.023C98.1906 124.741 92.8136 130.296 86.0956 130.296C79.5116 130.296 74.2136 124.953 74.2136 118.425C74.2136 118.291 74.2136 118.157 74.2246 118.023L75.5436 100.318L75.8786 95.8361L76.5376 87.0391H95.6406L96.6916 100.944L97.4406 111.06L97.9666 118.023Z" fill="#F5F5FF" stroke="#2E2E2E" stroke-width="0.5589" stroke-miterlimit="10" stroke-linecap="round" stroke-linejoin="round"/>
<path d="M97.4407 111.06C91.1697 111.507 84.2627 108.388 79.5227 102.33C77.9247 100.296 76.7057 98.0941 75.8787 95.8361L76.5377 87.0391H95.6407L96.6917 100.944L97.4407 111.06Z" fill="#2E2E2E"/>
<path d="M106.599 79.1552C106.599 84.3012 104.496 89.2282 100.772 92.7822L95.0945 97.8782C93.3725 99.7602 90.9395 100.832 88.3865 100.832H83.0995C80.5665 100.832 78.1635 99.7812 76.4315 97.9382L70.6345 92.7922C66.8395 89.2282 64.6975 84.2612 64.6975 79.0652L64.7875 77.4932L65.3085 68.4822L65.6985 61.8042C65.6985 50.7002 74.6295 41.6992 85.6435 41.6992C91.1605 41.6992 96.1465 43.9522 99.7515 47.5862C103.367 51.2212 105.599 56.2472 105.599 61.8042L106.039 69.4042L106.47 76.9032L106.599 79.1552Z" fill="#F5F5FF" stroke="#2E2E2E" stroke-width="0.5006" stroke-miterlimit="10" stroke-linecap="round" stroke-linejoin="round"/>
<path d="M106.038 69.4032H105.417C102.493 65.1182 100.611 60.1212 99.9896 54.9752C99.5996 51.7612 95.0336 50.6802 91.8096 51.0302C90.3576 53.2232 87.8046 54.6552 85.1716 54.7352C82.5386 54.8152 79.9556 53.0532 78.3736 50.9402C75.1596 50.5902 70.5736 51.6712 70.1836 54.8852C69.6026 59.7012 67.9206 64.3872 65.3076 68.4822L65.6976 61.8042C65.6976 50.7002 74.6286 41.6992 85.6426 41.6992C91.1596 41.6992 96.1456 43.9522 99.7506 47.5862C103.366 51.2212 105.598 56.2472 105.598 61.8042L106.038 69.4032Z" fill="#2E2E2E"/>
<path d="M106.599 79.1553L106.469 76.9023C104.907 78.9653 102.995 81.4883 101.643 82.9803C99.6905 85.1233 96.3355 85.3543 92.9915 85.2743C92.1205 85.2543 90.9696 84.8543 89.8076 84.3233C86.9036 83.0013 83.2996 83.0013 80.3856 84.3233C79.2346 84.8543 78.0626 85.2543 77.1916 85.2743C73.8476 85.3543 70.4935 85.1223 68.5505 82.9803C67.3685 81.6783 65.9676 79.5063 64.7856 77.4933L64.6956 79.0653C64.6956 79.9523 64.7806 80.8273 64.9026 81.6943C64.8636 81.6293 64.8236 81.5633 64.7856 81.4983L64.6956 83.0703C64.6956 88.2663 66.8385 93.2333 70.6325 96.7973L76.4296 101.943C78.1616 103.785 80.5646 104.837 83.0976 104.837H88.3846C90.9376 104.837 93.3706 103.766 95.0926 101.883L100.77 96.7873C104.495 93.2333 106.597 88.3063 106.597 83.1603L106.483 81.1813C106.557 80.5113 106.599 79.8353 106.599 79.1553Z" fill="#2E2E2E"/>
<path d="M82.1187 104.785C83.2687 104.793 84.4186 104.681 85.5706 104.663C86.7136 104.604 87.8906 104.623 89.0056 104.566C91.2416 104.384 93.3796 103.379 94.9606 101.762L94.9706 101.751L94.9727 101.749C95.8957 100.967 96.8336 100.202 97.7926 99.4609C96.9526 100.335 96.0906 101.185 95.2146 102.018L95.2267 102.006C93.6997 103.787 91.4066 104.95 89.0386 105.059C87.8546 105.102 86.7276 105.049 85.5686 105.012C84.4206 104.964 83.2657 104.959 82.1187 104.785Z" fill="#F5F5FF"/>
<path d="M94.9636 89.3047C92.3506 91.9687 88.8356 93.4607 85.3316 93.3467C82.1476 93.2447 79.0336 91.8097 76.6306 89.4417H77.1916C78.0626 89.4187 79.2336 88.9637 80.3856 88.3597C83.2996 86.8567 86.9036 86.8567 89.8076 88.3597C90.9686 88.9637 92.1206 89.4187 92.9916 89.4417C93.6526 89.4637 94.3136 89.4187 94.9636 89.3047Z" fill="#F5F5FF"/>
<path d="M85.3316 92.1055C86.4386 92.5665 87.0136 93.0285 87.4276 93.4895C87.8206 93.9505 88.0066 94.4125 88.0066 94.8735C88.0126 95.3345 87.8286 95.7965 87.4356 96.2575C87.0226 96.7185 86.4466 97.1805 85.3326 97.6415C84.2186 97.1805 83.6416 96.7185 83.2296 96.2575C82.8366 95.7965 82.6526 95.3345 82.6586 94.8735C82.6576 94.4125 82.8446 93.9505 83.2366 93.4895C83.6506 93.0285 84.2246 92.5665 85.3316 92.1055Z" fill="#2E2E2E"/>
<path d="M90.0224 65.5721C90.9534 65.0131 91.9724 64.6291 93.0444 64.3421C94.1184 64.0661 95.2594 63.9081 96.4364 63.9501C97.6074 63.9881 98.8254 64.2571 99.8934 64.8191C100.962 65.3721 101.845 66.2361 102.312 67.2731C101.232 66.9171 100.26 66.7301 99.3314 66.7011C98.4024 66.6711 97.5144 66.7901 96.6134 66.9521C94.8084 67.2741 92.9744 67.9001 90.9104 68.1571C90.1454 68.2521 89.4474 67.7091 89.3524 66.9441C89.2814 66.3791 89.5644 65.8481 90.0224 65.5721Z" fill="#2E2E2E"/>
<path d="M80.3595 68.1571C78.2955 67.9001 76.4615 67.2741 74.6565 66.9521C73.7555 66.7901 72.8675 66.6701 71.9385 66.7011C71.0095 66.7301 70.0375 66.9171 68.9575 67.2731C69.4245 66.2361 70.3075 65.3731 71.3765 64.8191C72.4445 64.2571 73.6625 63.9881 74.8335 63.9501C76.0095 63.9081 77.1505 64.0661 78.2245 64.3421C79.2975 64.6291 80.3155 65.0131 81.2465 65.5721C81.9095 65.9671 82.1255 66.8241 81.7305 67.4871C81.4405 67.9761 80.8905 68.2211 80.3595 68.1571Z" fill="#2E2E2E"/>
<path d="M90.4374 74.1269C90.7254 73.6809 91.0304 73.2519 91.3354 72.8159C91.6814 72.3799 92.0534 71.9479 92.5064 71.6029C93.3964 70.8969 94.4964 70.4519 95.6324 70.2829C96.7704 70.1399 97.9644 70.2619 99.0174 70.7339C99.5544 70.9409 100.036 71.2699 100.491 71.6019C100.909 71.9239 101.33 72.2409 101.604 72.7639C101.667 72.8839 101.621 73.0319 101.501 73.0949C101.453 73.1199 101.401 73.1279 101.352 73.1199C100.767 73.0339 100.329 72.7419 99.8874 72.4539C99.4664 72.2039 99.0414 71.9809 98.5864 71.8259C97.6864 71.4999 96.7234 71.3809 95.7694 71.4589C94.8224 71.5609 93.8704 71.8389 93.0574 72.3789C92.6304 72.6189 92.2624 72.9499 91.9034 73.2929C91.5284 73.6619 91.1604 74.0439 90.7724 74.4049C90.6834 74.4879 90.5444 74.4829 90.4614 74.3949C90.3914 74.3209 90.3834 74.2089 90.4374 74.1269Z" fill="#2E2E2E"/>
<path d="M94.0815 72.5233C94.1545 71.5093 95.0365 70.7463 96.0505 70.8193C97.0645 70.8923 97.8275 71.7733 97.7545 72.7883C97.6815 73.8023 96.8005 74.5653 95.7855 74.4923C94.7715 74.4193 94.0085 73.5373 94.0815 72.5233Z" fill="#2E2E2E"/>
<path d="M90.8174 74.2852C91.7094 74.7572 92.7434 74.9862 93.8144 74.9482" stroke="#2E2E2E" stroke-width="0.5006" stroke-miterlimit="10" stroke-linecap="round" stroke-linejoin="round"/>
<path d="M90.5564 72.0643C91.5764 70.6533 93.1874 69.6843 94.9124 69.4473" stroke="#2E2E2E" stroke-width="0.5006" stroke-miterlimit="10" stroke-linecap="round" stroke-linejoin="round"/>
<path d="M81.4655 74.4068C81.0775 74.0458 80.7095 73.6638 80.3345 73.2948C79.9755 72.9518 79.6074 72.6208 79.1804 72.3808C78.3674 71.8408 77.4145 71.5618 76.4685 71.4608C75.5145 71.3828 74.5525 71.5008 73.6515 71.8278C73.1965 71.9828 72.7725 72.2058 72.3505 72.4558C71.9085 72.7438 71.4705 73.0358 70.8855 73.1218C70.7515 73.1418 70.6274 73.0488 70.6074 72.9148C70.5994 72.8618 70.6094 72.8098 70.6334 72.7658C70.9074 72.2418 71.3285 71.9258 71.7465 71.6038C72.2015 71.2728 72.6835 70.9428 73.2205 70.7358C74.2745 70.2638 75.4675 70.1418 76.6055 70.2848C77.7415 70.4538 78.8415 70.8988 79.7315 71.6048C80.1845 71.9488 80.5565 72.3818 80.9025 72.8178C81.2065 73.2538 81.5114 73.6828 81.8004 74.1288C81.8664 74.2308 81.8375 74.3668 81.7355 74.4328C81.6485 74.4868 81.5365 74.4738 81.4655 74.4068Z" fill="#2E2E2E"/>
<path d="M78.1554 72.5233C78.0824 71.5093 77.2004 70.7463 76.1864 70.8193C75.1724 70.8923 74.4094 71.7733 74.4824 72.7883C74.5554 73.8023 75.4364 74.5653 76.4514 74.4923C77.4654 74.4193 78.2284 73.5373 78.1554 72.5233Z" fill="#2E2E2E"/>
<path d="M81.4194 74.2871C80.5274 74.7591 79.4934 74.9881 78.4224 74.9501" stroke="#2E2E2E" stroke-width="0.5006" stroke-miterlimit="10" stroke-linecap="round" stroke-linejoin="round"/>
<path d="M81.6805 72.0643C80.6605 70.6533 79.0495 69.6843 77.3245 69.4473" stroke="#2E2E2E" stroke-width="0.5006" stroke-miterlimit="10" stroke-linecap="round" stroke-linejoin="round"/>
<path d="M86.0444 80.9823V72.0312" stroke="#2E2E2E" stroke-width="0.4622" stroke-miterlimit="10" stroke-linecap="round" stroke-linejoin="round"/>
<path d="M82.9355 82.5332L84.4726 83.1802C85.4566 83.5942 86.5616 83.5942 87.5456 83.1802L89.0826 82.5332" stroke="#2E2E2E" stroke-width="0.4622" stroke-miterlimit="10" stroke-linecap="round" stroke-linejoin="round"/>
<path d="M87.2744 89.6284C89.1484 89.6484 91.1114 89.2834 92.7184 88.3184" stroke="#2E2E2E" stroke-width="0.4178" stroke-miterlimit="10" stroke-linecap="round" stroke-linejoin="round"/>
<path d="M83.7074 89.7084C81.8324 89.7284 79.8704 89.3634 78.2634 88.3984" stroke="#2E2E2E" stroke-width="0.4178" stroke-miterlimit="10" stroke-linecap="round" stroke-linejoin="round"/>
<path d="M83.7075 89.7099C84.5525 90.3559 86.1425 90.5179 87.2745 89.6289" stroke="#2E2E2E" stroke-width="0.4178" stroke-miterlimit="10" stroke-linecap="round" stroke-linejoin="round"/>
<path d="M85.5435 85.3198C85.9565 84.4538 86.7835 83.9318 87.6055 83.7038C88.4375 83.4768 89.2725 83.5208 90.0285 83.6628C91.5845 84.0108 92.7005 84.6358 93.5265 84.9818L94.5045 85.4048C94.7605 85.5208 95.0265 85.6198 95.4695 85.6418C96.3485 85.7098 97.6415 85.2658 99.2845 85.1138C99.1255 87.0148 98.5485 88.6568 97.1105 89.9548C96.4065 90.5898 95.4065 91.0268 94.3995 91.1008C93.3895 91.1898 92.4575 90.9338 91.6925 90.5898C90.1505 89.8808 89.1575 88.8188 88.4035 87.9668C88.0065 87.5118 87.6375 87.0618 87.2205 86.6058C86.7975 86.1428 86.3265 85.6958 85.5435 85.3198Z" fill="#2E2E2E"/>
<path d="M85.5526 85.3208C84.7696 85.6968 84.2985 86.1438 83.8745 86.6078C83.4575 87.0648 83.0886 87.5138 82.6916 87.9688C81.9366 88.8218 80.9446 89.8828 79.4026 90.5918C78.6386 90.9358 77.7056 91.1918 76.6956 91.1028C75.6886 91.0288 74.6886 90.5917 73.9846 89.9567C72.5466 88.6587 71.9705 87.0167 71.8105 85.1157C73.4535 85.2677 74.7465 85.7117 75.6255 85.6437C76.0685 85.6227 76.3345 85.5237 76.5905 85.4067L77.5685 84.9838C78.3945 84.6378 79.5106 84.0128 81.0666 83.6648C81.8236 83.5228 82.6575 83.4788 83.4905 83.7058C84.3125 83.9328 85.1396 84.4548 85.5526 85.3208Z" fill="#2E2E2E"/>
<path d="M87.2255 50.842C90.9375 50.414 94.9155 49.167 96.9295 46.019C98.6245 43.368 98.5215 39.86 97.3365 36.945C95.5725 32.61 91.4235 29.288 86.7815 28.7C82.1385 28.111 77.2065 30.372 74.7755 34.371C72.3445 38.37 72.6585 43.906 75.6625 47.494C78.6665 51.083 84.1955 52.343 88.3855 50.257" fill="#2E2E2E"/>
<path d="M98.0445 36.3359C100.09 38.3189 100.105 41.8119 98.6695 44.2829C97.2345 46.7549 94.6725 48.3459 92.0415 49.4039C87.9975 51.0299 83.3665 51.5969 79.3065 50.0139C75.2465 48.4309 71.9875 44.3669 72.1675 39.9629" stroke="#2E2E2E" stroke-width="0.4047" stroke-miterlimit="10" stroke-linecap="round" stroke-linejoin="round"/>
<path d="M88.6024 48.3955C92.4204 47.9105 95.7084 44.8245 96.6544 41.0935C97.6004 37.3625 96.2725 33.2025 93.4985 30.5355C90.7235 27.8685 86.6474 26.7035 82.8394 27.2615C79.3934 27.7665 76.1035 29.7025 74.3025 32.6845C72.5015 35.6665 72.3745 39.6815 74.2905 42.5905C76.2065 45.4995 80.2054 46.9635 83.4384 45.6675" stroke="#2E2E2E" stroke-width="0.4047" stroke-miterlimit="10" stroke-linecap="round" stroke-linejoin="round"/>
<path d="M131.713 165.035C122.596 169.149 114.272 170.417 113.122 167.867C111.972 165.317 118.43 159.916 127.547 155.802C136.664 151.688 144.988 150.42 146.138 152.97C147.289 155.519 140.83 160.921 131.713 165.035Z" fill="#2E2E2E"/>
<path d="M127.708 187.429L123.44 177.061L120.023 168.754L117.143 161.746L110.814 146.366C107.481 138.274 110.757 129.309 117.944 126.847C119.199 126.417 120.484 126.223 121.758 126.233C121.876 126.234 121.993 126.235 122.111 126.246C127.684 126.447 133.068 130.585 135.226 136.903L140.349 151.878L142.643 158.593L152.553 187.61" fill="#F5F5FF"/>
<path d="M127.708 187.429L123.44 177.061L120.023 168.754L117.143 161.746L110.814 146.366C107.481 138.274 110.757 129.309 117.944 126.847C119.199 126.417 120.484 126.223 121.758 126.233C121.876 126.234 121.993 126.235 122.111 126.246C127.684 126.447 133.068 130.585 135.226 136.903L140.349 151.878L142.643 158.593L152.553 187.61" stroke="#2E2E2E" stroke-width="0.535" stroke-miterlimit="10" stroke-linecap="round" stroke-linejoin="round"/>
<path d="M145.937 152.661C144.257 150.532 136.264 151.869 127.554 155.796C118.427 159.916 111.964 165.319 113.13 167.876C113.151 167.929 113.183 167.972 113.226 168.026L113.13 168.069L109.054 158.525C110.873 155.615 116.448 151.624 123.595 148.403C130.828 145.139 137.58 143.588 140.929 144.209L145.937 152.661Z" fill="#F5F5FF" stroke="#2E2E2E" stroke-width="0.5006" stroke-miterlimit="10" stroke-linecap="round" stroke-linejoin="round"/>
<path d="M140.929 144.207C137.58 143.586 130.828 145.138 123.595 148.401C116.447 151.622 110.873 155.613 109.054 158.523L103.051 144.453C99.1027 135.187 103.372 124.615 112.349 121.48C114.05 120.881 115.784 120.592 117.506 120.592C123.658 120.592 129.554 124.241 132.582 130.147L140.929 144.207Z" fill="#2E2E2E"/>
<path d="M39.7456 165.035C48.8626 169.149 57.1866 170.417 58.3366 167.867C59.4866 165.317 53.0286 159.916 43.9116 155.802C34.7946 151.688 26.4706 150.42 25.3206 152.97C24.1706 155.519 30.6286 160.921 39.7456 165.035Z" fill="#2E2E2E"/>
<path d="M43.7517 187.429L48.0197 177.061L51.4367 168.754L54.3177 161.746L60.6467 146.366C63.9797 138.274 60.7037 129.309 53.5167 126.847C52.2617 126.417 50.9767 126.223 49.7027 126.233C49.5847 126.234 49.4677 126.235 49.3497 126.246C43.7767 126.447 38.3917 130.585 36.2347 136.903L31.1117 151.878L28.8177 158.593L18.9077 187.61" fill="#F5F5FF"/>
<path d="M43.7517 187.429L48.0197 177.061L51.4367 168.754L54.3177 161.746L60.6467 146.366C63.9797 138.274 60.7037 129.309 53.5167 126.847C52.2617 126.417 50.9767 126.223 49.7027 126.233C49.5847 126.234 49.4677 126.235 49.3497 126.246C43.7767 126.447 38.3917 130.585 36.2347 136.903L31.1117 151.878L28.8177 158.593L18.9077 187.61" stroke="#2E2E2E" stroke-width="0.535" stroke-miterlimit="10" stroke-linecap="round" stroke-linejoin="round"/>
<path d="M25.5217 152.661C27.2017 150.532 35.1947 151.869 43.9047 155.796C53.0317 159.916 59.4947 165.319 58.3287 167.876C58.3077 167.929 58.2757 167.972 58.2327 168.026L58.3287 168.069L62.4057 158.525C60.5867 155.615 55.0117 151.624 47.8647 148.403C40.6317 145.139 33.8797 143.588 30.5307 144.209L25.5217 152.661Z" fill="#F5F5FF" stroke="#2E2E2E" stroke-width="0.5006" stroke-miterlimit="10" stroke-linecap="round" stroke-linejoin="round"/>
<path d="M30.5298 144.207C33.8788 143.586 40.6308 145.138 47.8638 148.401C55.0118 151.622 60.5858 155.613 62.4048 158.523L68.4078 144.453C72.3558 135.187 68.0868 124.615 59.1098 121.48C57.4088 120.881 55.6748 120.592 53.9528 120.592C47.8008 120.592 41.9048 124.241 38.8768 130.147L30.5298 144.207Z" fill="#2E2E2E"/>
<path d="M123.94 187.932H47.6387L48.0347 176.75L48.3127 168.682L48.6657 158.774L49.7997 126.781L49.9707 122.02L52.4317 121.131L66.7377 115.963L69.4987 114.968L70.8677 114.465L74.4417 112.543H75.5227H96.1737H96.6017L100.614 114.39L101.973 114.883L104.734 115.878L119.457 121.196L121.726 122.02L121.886 126.792L122.496 144.811L122.956 158.582L123.288 168.543V168.597L123.587 177.595L123.94 187.932Z" fill="#F5F5FF" stroke="#2E2E2E" stroke-width="0.535" stroke-miterlimit="10" stroke-linecap="round" stroke-linejoin="round"/>
<path d="M97.3167 112.094L100.306 114.157L101.609 114.626C100.635 122.397 94.0017 128.396 85.9607 128.396C77.9547 128.396 71.3337 122.432 70.3127 114.708L71.6397 114.227L74.7797 111.82" fill="#F5F5FF"/>
<path d="M97.3167 112.094L100.306 114.157L101.609 114.626C100.635 122.397 94.0017 128.396 85.9607 128.396C77.9547 128.396 71.3337 122.432 70.3127 114.708L71.6397 114.227L74.7797 111.82" stroke="#2E2E2E" stroke-width="0.5156" stroke-miterlimit="10" stroke-linecap="round" stroke-linejoin="round"/>
<path d="M60.2927 118.361V187.598" stroke="#2E2E2E" stroke-width="0.4622" stroke-miterlimit="10" stroke-linecap="round" stroke-linejoin="round"/>
<path d="M73.5708 122.523V187.597" stroke="#2E2E2E" stroke-width="0.4622" stroke-miterlimit="10" stroke-linecap="round" stroke-linejoin="round"/>
<path d="M85.9037 128.512L85.8997 187.599" stroke="#2E2E2E" stroke-width="0.4622" stroke-miterlimit="10" stroke-linecap="round" stroke-linejoin="round"/>
<path d="M99.1777 121.371V187.599" stroke="#2E2E2E" stroke-width="0.4622" stroke-miterlimit="10" stroke-linecap="round" stroke-linejoin="round"/>
<path d="M111.508 118.361V187.598" stroke="#2E2E2E" stroke-width="0.4622" stroke-miterlimit="10" stroke-linecap="round" stroke-linejoin="round"/>
</svg>
