<svg width="147" height="176" viewBox="0 0 147 176" fill="none" xmlns="http://www.w3.org/2000/svg">
<rect width="146.55" height="174.834" fill="white"/>
<path d="M132.159 87.6647C140.107 55.1438 120.187 22.3374 87.6658 14.3896C55.1448 6.44187 22.3385 26.3623 14.3907 58.8833C6.44294 91.4042 26.3634 124.211 58.8843 132.158C91.4052 140.106 124.212 120.186 132.159 87.6647Z" fill="#C91610"/>
<path d="M41.5508 43.3386C40.6918 40.8666 40.8718 38.0196 42.0348 35.6876C43.1978 33.3566 45.3258 31.5756 47.7528 30.9026C48.0098 27.1196 51.2388 24.1676 54.8558 24.3036C55.1498 22.5206 56.5568 20.8766 58.1718 20.2356C59.7858 19.5946 61.7138 19.9136 63.0618 21.0436C63.4938 19.3666 64.6038 17.7776 66.2268 17.4256C67.8498 17.0736 69.6378 17.7506 70.6698 19.1086C71.5418 17.1496 73.4868 16.6876 75.5458 16.5406C77.6038 16.3926 79.7018 17.4946 80.8208 19.3116C82.2018 17.5766 84.4798 17.1526 86.4938 17.9586C88.5078 18.7646 89.9188 20.9926 89.8448 23.2506C91.1418 22.2226 93.2128 22.5416 94.6638 23.3126C96.1148 24.0836 97.0808 25.7616 97.0558 27.4656C98.8648 27.5056 100.489 28.5826 101.513 30.1446C102.537 31.7066 102.794 33.7916 102.181 35.5756C103.999 35.8176 105.33 37.9776 105.931 39.7916C106.532 41.6056 106.072 43.7576 104.789 45.1286C106.279 46.1166 106.784 48.4526 107.053 50.2786C107.322 52.1046 106.803 54.0426 105.666 55.4556C106.865 56.6136 107.034 59.0876 106.814 60.7806C106.595 62.4736 105.548 64.0246 104.098 64.8056C105.209 65.9986 104.619 68.5656 103.916 70.0616C103.213 71.5566 101.561 72.4966 99.9798 72.2996C100.448 73.8776 99.2458 76.2606 97.9768 77.2416C96.7078 78.2236 94.8428 78.2586 93.5418 77.3246C93.1438 81.1896 88.5088 85.4346 84.8228 84.9866C83.8998 86.5616 81.7608 88.0206 79.9998 88.1276C78.2388 88.2346 76.4498 87.3896 75.3588 85.9366C74.7088 87.6466 72.3038 89.5416 70.5478 89.5446C68.7908 89.5486 67.0868 88.3456 66.4308 86.6386C63.4788 88.3966 58.3818 86.4126 56.9668 83.1776C55.6708 84.5016 52.7578 85.2006 51.2208 84.1996C49.6838 83.1976 48.9338 81.0426 49.4938 79.2396C48.0528 79.3916 46.2478 78.5956 45.2568 77.4886C44.2668 76.3816 43.8038 74.7786 44.0428 73.2816C42.6698 73.1006 41.3488 71.4556 40.8548 70.1016C40.3608 68.7476 40.6358 67.1186 41.5428 66.0236C40.3228 65.0876 39.7748 62.9826 39.6908 61.4006C39.6078 59.8186 40.2328 58.2116 41.3468 57.1406C39.1638 55.0756 38.8338 50.6806 41.0008 48.5976C40.1288 48.0686 39.8718 47.3096 39.8328 46.2556C39.7958 45.2016 40.7208 43.9356 41.5508 43.3386Z" fill="#2E2E2E"/>
<path d="M90.0247 60.4064C87.5517 64.3794 87.7907 69.0854 90.5587 70.9174C93.3277 72.7494 97.5767 71.0154 100.051 67.0424C102.525 63.0694 102.286 58.3634 99.5167 56.5314C96.7477 54.6984 92.4977 56.4334 90.0247 60.4064Z" fill="#F5F5FF" stroke="#2E2E2E" stroke-width="0.535" stroke-miterlimit="10" stroke-linecap="round" stroke-linejoin="round"/>
<path d="M97.4326 58.4375C98.6316 58.9055 99.5426 60.0445 99.7366 61.3165C99.9306 62.5895 99.4006 63.9475 98.3956 64.7525" stroke="#2E2E2E" stroke-width="0.535" stroke-miterlimit="10" stroke-linecap="round" stroke-linejoin="round"/>
<path d="M56.6327 60.4064C59.1067 64.3794 58.8677 69.0854 56.0987 70.9174C53.3297 72.7494 49.0807 71.0154 46.6067 67.0424C44.1327 63.0694 44.3727 58.3634 47.1407 56.5314C49.9097 54.6984 54.1587 56.4334 56.6327 60.4064Z" fill="#F5F5FF" stroke="#2E2E2E" stroke-width="0.535" stroke-miterlimit="10" stroke-linecap="round" stroke-linejoin="round"/>
<path d="M49.2237 58.4375C48.0247 58.9055 47.1137 60.0445 46.9197 61.3165C46.7257 62.5895 47.2557 63.9475 48.2607 64.7525" stroke="#2E2E2E" stroke-width="0.535" stroke-miterlimit="10" stroke-linecap="round" stroke-linejoin="round"/>
<path d="M85.2017 106.39C85.4257 113.108 80.0487 118.663 73.3307 118.663C66.7467 118.663 61.4487 113.32 61.4487 106.792C61.4487 106.658 61.4487 106.524 61.4597 106.39L62.7787 88.6853L63.1137 84.2032L63.7727 75.4062H82.8757L83.9267 89.3112L84.6757 99.4272L85.2017 106.39Z" fill="#F5F5FF" stroke="#2E2E2E" stroke-width="0.5589" stroke-miterlimit="10" stroke-linecap="round" stroke-linejoin="round"/>
<path d="M84.6758 99.4253C78.4048 99.8723 71.4978 96.7543 66.7578 90.6953C65.1598 88.6613 63.9408 86.4593 63.1138 84.2013L63.7728 75.4043H82.8758L83.9268 89.3093L84.6758 99.4253Z" fill="#2E2E2E"/>
<path d="M93.7798 72.1801C93.0358 74.0871 91.9608 76.0831 90.6678 78.0151C88.1758 81.7351 84.8748 85.2261 81.5788 87.4401C77.9648 89.8611 73.2278 90.6531 69.1058 89.2471C65.8638 88.1431 63.1878 85.8221 60.7958 83.3651C57.8138 80.3061 55.0908 76.8811 53.5618 72.8881C52.3748 69.7821 51.8668 66.3271 51.7318 62.7891C51.5428 57.8871 52.0678 52.8321 52.4878 48.3261C53.1018 41.6881 57.1238 35.3871 62.8578 32.0091C68.4798 28.7021 75.6668 28.2061 81.6908 30.7221C87.7088 33.2381 92.4158 38.6951 94.0098 45.0251C95.1498 49.5251 94.7598 54.1971 94.8308 58.7851C94.8488 60.0721 94.9078 61.3721 94.9368 62.6711C95.0258 65.9021 94.9608 69.1321 93.7798 72.1801Z" fill="#F5F5FF" stroke="#2E2E2E" stroke-width="0.535" stroke-miterlimit="10" stroke-linecap="round" stroke-linejoin="round"/>
<path d="M95.0138 62.6734V62.8334L94.8958 62.7264C93.4088 61.4314 92.4988 59.5594 92.4028 57.6014L91.6218 42.7824C90.8408 42.4724 90.0918 42.1514 89.3318 41.7984C88.1978 41.2524 87.0958 40.6644 86.0688 40.0324C83.8328 38.6944 81.8848 37.1644 80.4088 35.5924C78.2898 36.1064 75.8718 36.3734 73.4108 36.3734C70.5428 36.3734 67.7718 36.0094 65.3968 35.3144C64.0168 36.8554 62.1978 38.3424 60.1008 39.6694C58.9028 40.4394 57.6078 41.1564 56.2378 41.7984C55.9378 41.9374 55.6068 42.0874 55.2108 42.2584L54.4298 57.6024C54.3228 59.6464 53.3598 61.5504 51.7868 62.8454L51.6688 62.9414L51.6578 62.7914C51.4868 58.2334 51.9358 53.4824 52.3208 49.2984L52.4168 48.3244C52.8128 44.0334 54.5888 39.9244 57.3598 36.6184C58.9008 34.7674 60.7518 33.1734 62.8278 31.9424C68.4558 28.6364 75.6998 28.1334 81.7238 30.6584C84.6878 31.8884 87.3518 33.8574 89.4708 36.2974C91.6538 38.7904 93.2698 41.7974 94.0828 45.0074C94.9598 48.4744 94.9388 52.0904 94.9068 55.5894C94.8958 56.6384 94.8958 57.7294 94.9068 58.7884C94.9178 59.5264 94.9388 60.2864 94.9708 61.0244C94.9818 61.5714 95.0028 62.1174 95.0138 62.6734Z" fill="#2E2E2E"/>
<path d="M89.4709 36.2993C87.3519 33.8593 84.6879 31.8913 81.7239 30.6603C75.6999 28.1353 68.4559 28.6383 62.8279 31.9443C60.7519 33.1753 58.9009 34.7693 57.3599 36.6203C57.7449 37.2663 58.2289 37.8783 58.7839 38.4603C58.8409 39.8093 59.4359 41.1353 60.4319 42.0503C61.5999 43.1223 63.2849 43.6043 64.8429 43.3113C65.1419 44.4913 66.5329 45.7053 67.7379 45.8813C68.9419 46.0573 70.2239 45.4473 70.8479 44.4023C71.5229 45.4463 72.9239 46.3613 74.1619 46.2563C75.4009 46.1513 76.5509 45.3203 77.0409 44.1783C77.7719 45.4123 78.9299 46.4883 80.3499 46.2953C81.7709 46.1023 83.0259 45.0003 83.4009 43.6163C85.1899 44.1323 87.2929 43.2783 87.7399 41.4713C87.9499 40.6243 87.7679 39.7293 87.3379 38.9723C88.2179 38.1513 88.9479 37.2583 89.4709 36.2993Z" fill="#2E2E2E"/>
<path d="M79.6859 77.2305C79.6859 78.8905 76.1309 80.2375 73.7169 80.2375C71.4469 80.2375 66.8269 78.8915 66.8269 77.2305" fill="#F5F5FF"/>
<path d="M79.6859 77.2305C79.6859 78.8905 76.1309 80.2375 73.7169 80.2375C71.4469 80.2375 66.8269 78.8915 66.8269 77.2305" stroke="#2E2E2E" stroke-width="0.6212" stroke-miterlimit="10" stroke-linecap="round" stroke-linejoin="round"/>
<path d="M79.6859 77.1854V77.2164H66.8269V77.1854C66.8269 75.9224 71.3029 74.8984 73.7169 74.8984C75.9879 74.8984 79.6859 75.9224 79.6859 77.1854Z" fill="#2E2E2E" stroke="#2E2E2E" stroke-width="0.4608" stroke-miterlimit="10"/>
<path d="M78.6568 75.9067C79.3058 76.3227 80.3168 76.4047 81.1738 75.9697L81.1818 75.9657C81.3148 75.8977 81.4778 75.9517 81.5458 76.0847C81.5988 76.1887 81.5778 76.3107 81.5028 76.3917C80.7248 77.2307 79.4598 77.7067 78.1398 77.4727L78.0508 77.4567C77.5888 77.3747 77.2808 76.9347 77.3628 76.4727C77.4448 76.0107 77.8848 75.7027 78.3468 75.7847C78.4588 75.8047 78.5658 75.8487 78.6568 75.9067Z" fill="#2E2E2E"/>
<path d="M68.5178 77.472C67.1988 77.705 65.9338 77.2301 65.1548 76.3911C65.0528 76.2811 65.0598 76.11 65.1688 76.008C65.2538 75.929 65.3768 75.915 65.4748 75.965L65.4828 75.969C66.3398 76.404 67.3508 76.322 67.9988 75.906C68.3938 75.653 68.9188 75.7671 69.1718 76.1621C69.4248 76.5571 69.3108 77.082 68.9158 77.335C68.8198 77.397 68.7148 77.437 68.6088 77.456L68.5178 77.472Z" fill="#2E2E2E"/>
<path d="M71.4067 76.9453C71.9407 77.4353 72.6497 77.7303 73.3737 77.7633C74.0977 77.7963 74.8307 77.5673 75.4077 77.1283" fill="#2E2E2E"/>
<path d="M71.4067 76.9453C71.9407 77.4353 72.6497 77.7303 73.3737 77.7633C74.0977 77.7963 74.8307 77.5673 75.4077 77.1283" stroke="#2E2E2E" stroke-width="0.9216" stroke-miterlimit="10" stroke-linecap="round" stroke-linejoin="round"/>
<path d="M76.5747 54.7715C77.0797 53.5435 78.0827 52.6385 79.1947 52.0145C80.3187 51.3965 81.5937 51.0585 82.8827 51.0165C84.1717 50.9725 85.4627 51.2305 86.6227 51.7705C87.7717 52.3175 88.8287 53.1435 89.4317 54.3285L85.9957 54.2355C84.9547 54.2165 83.9647 54.2215 82.9847 54.2495C82.0047 54.2805 81.0187 54.3365 79.9847 54.4245C78.9407 54.5065 77.8797 54.6245 76.5747 54.7715Z" fill="#2E2E2E"/>
<path d="M70.0818 54.7706C68.7768 54.6236 67.7158 54.5056 66.6728 54.4216C65.6388 54.3336 64.6538 54.2776 63.6728 54.2466C62.6918 54.2186 61.7028 54.2136 60.6618 54.2326L57.2258 54.3266C57.8288 53.1416 58.8858 52.3156 60.0348 51.7686C61.1948 51.2286 62.4848 50.9706 63.7748 51.0146C65.0638 51.0566 66.3388 51.3946 67.4628 52.0126C68.5748 52.6386 69.5768 53.5426 70.0818 54.7706Z" fill="#2E2E2E"/>
<path d="M77.176 63.4349C77.408 62.9189 77.667 62.4189 77.912 61.9109L77.933 61.8799C78.544 60.9619 79.31 60.0749 80.334 59.4949C81.338 58.8979 82.548 58.5959 83.72 58.6689C84.885 58.7269 86.034 59.0759 87.023 59.6779C87.517 59.9759 87.968 60.3319 88.384 60.7159C88.798 61.0939 89.171 61.5539 89.323 62.1129L89.326 62.1229C89.363 62.2589 89.283 62.3999 89.147 62.4369C89.088 62.4529 89.029 62.4469 88.977 62.4249C88.426 62.1839 88.068 61.8639 87.67 61.5499C87.276 61.2419 86.855 60.9759 86.419 60.7529C85.555 60.2989 84.606 60.0379 83.644 59.9609C82.688 59.8839 81.734 60.0549 80.867 60.4769C80.005 60.9069 79.226 61.5619 78.558 62.3399L78.578 62.3099C78.243 62.7639 77.923 63.2269 77.576 63.6739C77.497 63.7759 77.349 63.7949 77.247 63.7149C77.158 63.6489 77.132 63.5319 77.176 63.4349Z" fill="#2E2E2E"/>
<path d="M81.118 61.4531C81.196 60.3691 82.138 59.5541 83.222 59.6321C84.306 59.7101 85.121 60.6521 85.043 61.7361C84.965 62.8201 84.023 63.6351 82.939 63.5571C81.855 63.4791 81.04 62.5371 81.118 61.4531Z" fill="#2E2E2E"/>
<path d="M87.051 63.2499C87.775 63.0889 88.46 62.7599 89.039 62.2969" stroke="#2E2E2E" stroke-width="0.535" stroke-miterlimit="10" stroke-linecap="round" stroke-linejoin="round"/>
<path d="M77.1299 60.1317C77.9409 58.7497 79.2529 57.6697 80.7639 57.1387C82.2749 56.6077 83.9739 56.6297 85.4709 57.2007" stroke="#2E2E2E" stroke-width="0.535" stroke-miterlimit="10" stroke-linecap="round" stroke-linejoin="round"/>
<path d="M69.0819 63.6759C68.7349 63.2289 68.4149 62.7659 68.0799 62.3119L68.0999 62.3419C67.4319 61.5639 66.6529 60.9089 65.7909 60.4789C64.9239 60.0569 63.9699 59.8859 63.0139 59.9629C62.0529 60.0399 61.1039 60.3009 60.2399 60.7549C59.8039 60.9779 59.3839 61.2439 58.9889 61.5519C58.5909 61.8649 58.2329 62.1849 57.6819 62.4269C57.5519 62.4839 57.4019 62.4249 57.3449 62.2949C57.3209 62.2389 57.3179 62.1799 57.3319 62.1249L57.3349 62.1149C57.4869 61.5559 57.8599 61.0959 58.2739 60.7179C58.6899 60.3329 59.1399 59.9769 59.6349 59.6799C60.6239 59.0779 61.7719 58.7289 62.9379 58.6709C64.1099 58.5979 65.3199 58.8999 66.3239 59.4969C67.3479 60.0769 68.1149 60.9639 68.7249 61.8819L68.7459 61.9129C68.9909 62.4209 69.2489 62.9209 69.4819 63.4369C69.5349 63.5549 69.4829 63.6939 69.3639 63.7479C69.2629 63.7909 69.1469 63.7589 69.0819 63.6759Z" fill="#2E2E2E"/>
<path d="M65.5388 61.4531C65.4608 60.3691 64.5188 59.5541 63.4348 59.6321C62.3508 59.7101 61.5358 60.6521 61.6138 61.7361C61.6918 62.8201 62.6338 63.6351 63.7178 63.5571C64.8018 63.4791 65.6168 62.5371 65.5388 61.4531Z" fill="#2E2E2E"/>
<path d="M59.6059 63.2479C58.8829 63.0869 58.1969 62.7579 57.6179 62.2949" stroke="#2E2E2E" stroke-width="0.535" stroke-miterlimit="10" stroke-linecap="round" stroke-linejoin="round"/>
<path d="M69.5268 60.1317C68.7158 58.7497 67.4038 57.6697 65.8928 57.1387C64.3818 56.6077 62.6828 56.6297 61.1858 57.2007" stroke="#2E2E2E" stroke-width="0.535" stroke-miterlimit="10" stroke-linecap="round" stroke-linejoin="round"/>
<path d="M70.2277 70.6232C69.1677 70.7522 68.5627 69.6022 69.0607 68.6582" stroke="#2E2E2E" stroke-width="0.6206" stroke-miterlimit="10" stroke-linecap="round" stroke-linejoin="round"/>
<path d="M76.4287 70.7287C77.4877 70.8577 78.0927 69.7077 77.5957 68.7637" stroke="#2E2E2E" stroke-width="0.6206" stroke-miterlimit="10" stroke-linecap="round" stroke-linejoin="round"/>
<path d="M70.1348 70.4668C71.8408 72.0328 74.7308 72.0798 76.4858 70.5698" stroke="#2E2E2E" stroke-width="0.6206" stroke-miterlimit="10" stroke-linecap="round" stroke-linejoin="round"/>
<path d="M119.469 152.258C110.352 156.372 102.028 157.64 100.878 155.09C99.728 152.54 106.186 147.138 115.303 143.025C124.42 138.911 132.744 137.643 133.894 140.193C135.044 142.742 128.586 148.144 119.469 152.258Z" fill="#2E2E2E"/>
<path d="M115.464 174.651L111.196 164.283L107.779 155.976L104.899 148.968L98.5699 133.588C95.2369 125.496 98.5128 116.531 105.7 114.069C106.955 113.639 108.24 113.445 109.514 113.455C109.632 113.456 109.749 113.457 109.867 113.468C115.44 113.669 120.824 117.807 122.982 124.125L128.105 139.1L130.399 145.815L140.309 174.832" fill="#F5F5FF"/>
<path d="M115.464 174.651L111.196 164.283L107.779 155.976L104.899 148.968L98.5699 133.588C95.2369 125.496 98.5128 116.531 105.7 114.069C106.955 113.639 108.24 113.445 109.514 113.455C109.632 113.456 109.749 113.457 109.867 113.468C115.44 113.669 120.824 117.807 122.982 124.125L128.105 139.1L130.399 145.815L140.309 174.832" stroke="#2E2E2E" stroke-width="0.535" stroke-miterlimit="10" stroke-linecap="round" stroke-linejoin="round"/>
<path d="M133.697 139.884C132.011 137.756 124.025 139.096 115.307 143.02C106.188 147.137 99.7219 152.54 100.882 155.096C100.91 155.151 100.937 155.193 100.979 155.248L100.882 155.29L90.8099 131.677C86.8579 122.406 91.1279 111.836 100.109 108.7C101.808 108.106 103.535 107.816 105.262 107.816C111.411 107.816 117.31 111.464 120.336 117.377L133.697 139.884Z" fill="#F5F5FF" stroke="#2E2E2E" stroke-width="0.535" stroke-miterlimit="10" stroke-linecap="round" stroke-linejoin="round"/>
<path d="M27.3098 152.415C36.4268 156.529 44.7508 157.797 45.9008 155.247C47.0508 152.697 40.5928 147.295 31.4758 143.181C22.3588 139.067 14.0358 137.799 12.8848 140.349C11.7348 142.899 18.1928 148.301 27.3098 152.415Z" fill="#2E2E2E"/>
<path d="M6.2478 174.835L16.3698 145.902L18.7128 139.193L23.9448 124.256C26.1918 117.825 31.7878 113.684 37.4808 113.684H37.5558C38.8078 113.695 40.0598 113.898 41.2898 114.326C48.4588 116.84 51.6798 125.829 48.2878 133.896L41.8468 149.229V149.24L38.9148 156.216L35.7908 163.652L31.0938 174.834" fill="#F5F5FF"/>
<path d="M6.2478 174.835L16.3698 145.902L18.7128 139.193L23.9448 124.256C26.1918 117.825 31.7878 113.684 37.4808 113.684H37.5558C38.8078 113.695 40.0598 113.898 41.2898 114.326C48.4588 116.84 51.6798 125.829 48.2878 133.896L41.8468 149.229V149.24L38.9148 156.216L35.7908 163.652L31.0938 174.834" stroke="#2E2E2E" stroke-width="0.535" stroke-miterlimit="10" stroke-linecap="round" stroke-linejoin="round"/>
<path d="M13.0828 140.041C14.7688 137.913 22.7548 139.253 31.4728 143.177C40.5918 147.294 47.0578 152.697 45.8978 155.253C45.8698 155.308 45.8428 155.35 45.8008 155.405L45.8978 155.447L55.9698 131.834C59.9218 122.563 55.6518 111.993 46.6708 108.857C44.9718 108.263 43.2448 107.973 41.5178 107.973C35.3688 107.973 29.4698 111.621 26.4438 117.534L13.0828 140.041Z" fill="#F5F5FF" stroke="#2E2E2E" stroke-width="0.535" stroke-miterlimit="10" stroke-linecap="round" stroke-linejoin="round"/>
<path d="M111.429 174.834H35.1267L35.5227 163.652L35.8007 155.584L36.1547 145.676L37.2887 113.683L37.4617 108.319L54.2267 102.865L56.9877 101.87L58.3567 101.367L61.9307 99.4453H63.0117H83.6627H84.0907L88.1027 101.292L89.4617 101.785L92.2227 102.78L109.248 108.319L109.375 113.694L109.985 131.713L110.445 145.484L110.776 155.445V155.499L111.076 164.497L111.429 174.834Z" fill="#F5F5FF" stroke="#2E2E2E" stroke-width="0.535" stroke-miterlimit="10" stroke-linecap="round" stroke-linejoin="round"/>
<path d="M84.7827 98.9679L87.5677 101.061L88.8707 101.53C87.8967 109.301 81.2637 115.3 73.2227 115.3C65.2167 115.3 58.5957 109.336 57.5747 101.612L58.9017 101.131L62.0657 98.5859" fill="#F5F5FF"/>
<path d="M84.7827 98.9679L87.5677 101.061L88.8707 101.53C87.8967 109.301 81.2637 115.3 73.2227 115.3C65.2167 115.3 58.5957 109.336 57.5747 101.612L58.9017 101.131L62.0657 98.5859" stroke="#2E2E2E" stroke-width="0.535" stroke-miterlimit="10" stroke-linecap="round" stroke-linejoin="round"/>
</svg>
