<svg width="127" height="154" viewBox="0 0 127 154" fill="none" xmlns="http://www.w3.org/2000/svg">
<rect width="126.32" height="152.993" transform="translate(0.239502)" fill="white"/>
<path d="M63.3995 121.414C96.8779 121.414 124.017 94.2741 124.017 60.7957C124.017 27.3173 96.8779 0.177734 63.3995 0.177734C29.9211 0.177734 2.78149 27.3173 2.78149 60.7957C2.78149 94.2741 29.9211 121.414 63.3995 121.414Z" fill="#C91054"/>
<path d="M89.4534 38.3266C85.6144 32.7576 78.9735 29.4716 77.3755 22.5666C76.6935 19.6216 77.0904 16.4906 76.7944 13.4586C76.0764 6.12762 71.0674 0.37561 64.8004 0.0176097C64.6774 0.0106097 64.5545 0.00562561 64.4315 0.00262561C64.1045 -0.00437439 63.7774 0.0026217 63.4504 0.0236217C63.1234 0.0026217 62.7954 -0.00437439 62.4694 0.00262561C62.3464 0.00562561 62.2225 0.0106097 62.1005 0.0176097C55.8335 0.37561 50.8244 6.12762 50.1064 13.4586C49.8094 16.4906 50.2064 19.6216 49.5254 22.5666C47.9274 29.4716 41.2854 32.7576 37.4474 38.3266C33.7994 43.6186 32.8844 51.3016 35.1564 57.5596C36.9324 62.4506 40.5354 66.8326 40.1854 72.1316C39.9334 75.9406 37.6154 79.2646 37.4524 83.0796C37.2344 88.1706 41.3084 92.6446 45.6554 93.0016C50.0024 93.3586 76.9025 93.3586 81.2495 93.0016C85.5955 92.6446 89.6705 88.1706 89.4525 83.0796C89.2885 79.2636 86.9704 75.9406 86.7194 72.1316C86.3694 66.8336 89.9724 62.4516 91.7484 57.5596C94.0164 51.3016 93.1014 43.6196 89.4534 38.3266Z" fill="#2E2E2E"/>
<path d="M65.3855 2.15647C71.6425 1.45047 77.9625 6.98348 79.1495 14.2055C79.6865 17.4745 79.2875 20.9265 80.1455 24.1005C82.0825 31.2645 89.5575 34.5105 92.2385 41.3385C93.8865 45.5345 93.4245 50.5745 91.7075 54.7325C89.9905 58.8905 87.1415 62.2705 84.0575 65.1535" stroke="#2E2E2E" stroke-width="0.4623" stroke-miterlimit="10" stroke-linecap="round" stroke-linejoin="round"/>
<path d="M71.0325 24.459C80.7615 34.848 86.4185 50.262 86.1575 65.668C86.1145 68.196 85.9395 70.843 86.8465 73.139C87.5825 75.002 88.9525 76.415 89.8655 78.168C92.3145 82.874 90.5665 89.847 86.3335 92.26" stroke="#2E2E2E" stroke-width="0.4623" stroke-miterlimit="10" stroke-linecap="round" stroke-linejoin="round"/>
<path d="M59.1204 13.5699L56.9994 11.5959C54.9264 9.66689 56.5924 7.08889 60.1594 6.75989C61.4804 6.63789 62.7954 6.55989 63.9214 6.57389C65.3014 6.59089 66.6894 6.6669 68.0544 6.7999C71.8834 7.1719 73.7564 10.0459 71.4464 11.9309L69.0274 13.9049C68.0864 14.6729 66.6104 15.1039 65.0404 15.0709L63.2774 15.0329C61.6214 14.9979 60.0664 14.4509 59.1204 13.5699Z" fill="#F5F5FF"/>
<path d="M48.6484 18.2925C49.6784 16.9515 50.9114 15.7435 52.2454 14.6965C52.5844 14.4285 52.9324 14.1735 53.2834 13.9275L54.3944 13.2795L55.5114 12.6325C55.8924 12.4315 56.2854 12.2545 56.6814 12.0855C58.2764 11.4375 59.9524 10.9545 61.6744 10.7525C63.3924 10.5395 65.1544 10.5575 66.8694 10.9005L66.8314 10.8945C68.2174 11.1135 69.4924 11.4795 70.7574 11.9925C72.0104 12.5005 73.1904 13.1575 74.3134 13.9125C74.8994 14.2535 75.4004 14.6915 75.9214 15.1115C76.4404 15.5305 76.9694 15.9375 77.4264 16.4285C78.3604 17.3825 79.2224 18.4015 79.9514 19.5085C79.0664 18.5245 78.1434 17.5835 77.1314 16.7495C76.6334 16.3245 76.0974 15.9465 75.5624 15.5695C75.0304 15.1925 74.5084 14.7885 73.9274 14.4995C72.8124 13.8505 71.6384 13.2885 70.4324 12.8275C69.2334 12.3895 67.9444 12.0565 66.7214 11.8665L66.6834 11.8605C63.4644 11.2825 60.0834 11.7205 56.9834 12.8615C56.5934 13.0005 56.2064 13.1475 55.8294 13.3185L54.7184 13.8775L53.6034 14.4385C53.2484 14.6575 52.9014 14.8815 52.5624 15.1165C51.1474 16.0335 49.8614 17.1085 48.6484 18.2925Z" fill="#F5F5FF"/>
<path d="M75.1775 89.9335C75.3975 96.5435 70.2075 102.034 63.7375 102.034C57.3975 102.034 52.2975 96.7735 52.2975 90.3235C52.2975 90.1935 52.2975 90.0535 52.3075 89.9335L53.5775 72.4635L53.7375 70.2135L54.0175 66.4035L54.5375 59.3535H72.9375L73.7575 70.6135L73.9475 73.0735L74.5575 81.5035L75.1775 89.9335Z" fill="#F5F5FF" stroke="#2E2E2E" stroke-width="0.5" stroke-miterlimit="10"/>
<path d="M74.5575 81.5035C68.7575 82.2135 62.2175 79.4235 57.7875 73.7635C55.9875 71.4735 54.7375 68.9535 54.0175 66.4035L54.5375 59.3535H72.9375L73.7575 70.6135L73.9475 73.0735L74.5575 81.5035Z" fill="#2E2E2E"/>
<path d="M79.7664 41.839C77.4544 45.552 77.6784 49.95 80.2654 51.663C82.8524 53.376 86.8244 51.754 89.1364 48.041C91.4484 44.328 91.2244 39.93 88.6374 38.218C86.0504 36.505 82.0784 38.126 79.7664 41.839Z" fill="#F5F5FF" stroke="#2E2E2E" stroke-width="0.5" stroke-miterlimit="10"/>
<path d="M86.6914 40C87.8124 40.438 88.6634 41.502 88.8454 42.691C89.0274 43.88 88.5314 45.15 87.5924 45.902" stroke="#2E2E2E" stroke-width="0.5" stroke-miterlimit="10" stroke-linecap="round" stroke-linejoin="round"/>
<path d="M48.5594 41.839C50.8714 45.552 50.6474 49.95 48.0604 51.663C45.4734 53.376 41.5014 51.754 39.1894 48.041C36.8774 44.328 37.1014 39.93 39.6884 38.218C42.2764 36.505 46.2474 38.126 48.5594 41.839Z" fill="#F5F5FF" stroke="#2E2E2E" stroke-width="0.5" stroke-miterlimit="10"/>
<path d="M41.6354 40C40.5144 40.438 39.6634 41.502 39.4814 42.691C39.3004 43.88 39.7954 45.15 40.7344 45.902" stroke="#2E2E2E" stroke-width="0.5" stroke-miterlimit="10" stroke-linecap="round" stroke-linejoin="round"/>
<path d="M85.5174 36.7021C85.5174 37.0521 85.5174 37.3921 85.4974 37.7221C85.4574 38.7221 85.3774 39.7321 85.2474 40.7121L85.1074 42.1121L85.0474 42.8721L85.0074 43.3221L84.9474 43.9721C84.8874 44.6421 84.8474 45.3021 84.8074 45.9621C84.7974 46.1321 84.7874 46.2921 84.7774 46.4621C84.7574 46.7121 84.7474 46.9621 84.7374 47.2121C84.6374 48.8721 84.5474 50.5221 84.3274 52.1621C84.3274 52.1921 84.3174 52.2221 84.3174 52.2421C84.2674 52.5521 84.2174 52.8721 84.1574 53.1821C84.0974 53.5221 84.0474 53.8521 83.9574 54.1821C83.8474 54.6821 83.7174 55.1721 83.5674 55.6821C83.5174 55.8621 83.4574 56.0321 83.3974 56.2221C83.2774 56.5821 83.1374 56.9521 82.9874 57.3221C82.5974 58.2921 82.1274 59.2321 81.5974 60.1721C79.3574 64.0721 75.9274 67.6521 72.4974 70.0221C72.4874 70.0521 72.4574 70.0621 72.4474 70.0621C72.0274 70.3621 71.6074 70.6321 71.1974 70.8821C67.0074 73.4421 62.0574 73.5821 57.7174 71.3721C56.8174 70.9221 55.9574 70.4021 55.1174 69.7821C55.1074 69.7821 55.0874 69.7821 55.0774 69.7621C51.7574 67.3921 48.9074 63.9521 46.7574 60.1721C46.5974 59.9021 46.4574 59.6421 46.3074 59.3721C46.2374 59.2321 46.1674 59.0821 46.0974 58.9421C45.9774 58.7121 45.8674 58.4621 45.7374 58.2121C45.3974 57.5621 45.0974 56.8821 44.8274 56.2221C44.7574 56.0321 44.6674 55.8521 44.6074 55.6621C43.5974 53.0021 43.2374 50.0321 42.9974 47.1021C42.9674 46.8121 42.9474 46.5121 42.9174 46.2121C42.9174 46.0521 42.8974 45.8921 42.8874 45.7321C42.8474 45.2221 42.8074 44.7021 42.7674 44.2021L42.6474 42.8321C42.6174 42.6821 42.5974 42.5321 42.5774 42.3921C42.5374 42.2221 42.5174 42.0621 42.4974 41.8921C42.3874 41.2721 42.3074 40.6421 42.2474 39.9921C42.2174 39.7021 42.1874 39.4021 42.1674 39.1021C42.1074 38.3221 42.0774 37.5221 42.0774 36.7021C42.0774 36.6121 42.0774 36.5121 42.0874 36.4121C42.0874 35.7121 42.1174 35.0121 42.1774 34.3321C42.2174 33.7421 42.2874 33.1621 42.3774 32.6021C42.8774 29.1321 43.9874 25.9021 45.5874 23.0721C45.9974 22.3621 46.4274 21.6821 46.8874 21.0221C48.4274 18.8121 50.3174 16.9121 52.4274 15.4221C52.5774 15.3021 52.7374 15.1921 52.8874 15.0921C53.0774 14.9621 53.2674 14.8321 53.4574 14.7121C54.2074 14.2521 54.9774 13.8321 55.7674 13.4721C59.1274 11.9421 63.1274 11.2421 66.7774 11.9421C66.9574 11.9621 67.1374 12.0021 67.3174 12.0321C68.8274 12.3221 70.2674 12.7721 71.6374 13.4021C72.0774 13.5921 72.5074 13.8021 72.9274 14.0321C73.5374 14.3521 74.1274 14.7021 74.7074 15.0921C74.7474 15.1221 74.8074 15.1621 74.8474 15.1921C75.4674 15.6121 76.0574 16.0521 76.6374 16.5421C78.3474 17.9821 79.8674 19.7121 81.1374 21.6621C81.4674 22.1621 81.7774 22.6721 82.0674 23.1921C82.1674 23.3421 82.2374 23.4921 82.3374 23.6621C83.7374 26.3321 84.7474 29.3221 85.2074 32.5321C85.2074 32.5521 85.2274 32.5721 85.2274 32.6021C85.3074 33.1621 85.3674 33.7421 85.4174 34.3321C85.4774 35.0121 85.5074 35.7121 85.5074 36.4121C85.5174 36.5121 85.5174 36.6121 85.5174 36.7021Z" fill="#F5F5FF" stroke="#2E2E2E" stroke-width="0.5" stroke-miterlimit="10"/>
<path d="M85.5174 36.7021C85.5174 37.0521 85.5174 37.3921 85.4974 37.7221C85.4574 38.7221 85.3774 39.7321 85.2474 40.7121L85.1074 42.1121L85.0474 42.8721L85.0074 43.3221L84.9474 43.9721C84.8874 44.6421 84.8474 45.3021 84.8074 45.9621C84.7974 46.1321 84.7874 46.2921 84.7774 46.4621C82.4374 40.8821 81.3674 34.7721 81.6974 28.7321C79.9974 25.5921 77.4474 23.3621 74.1974 21.8621C72.0074 20.8521 69.6274 20.3321 67.2274 20.3321C66.0774 20.3321 64.9274 20.4521 63.7974 20.6921C60.2974 19.9421 56.6374 20.3621 53.3874 21.8621C50.1474 23.3621 47.5974 25.5921 45.8974 28.7321C46.2274 34.6821 45.1874 40.7021 42.9174 46.2121C42.9174 46.0521 42.8974 45.8921 42.8874 45.7321C42.8474 45.2221 42.8074 44.7021 42.7674 44.2021L42.6474 42.8321C42.6174 42.6821 42.5974 42.5321 42.5774 42.3921C42.5374 42.2221 42.5174 42.0621 42.4974 41.8921C42.3874 41.2721 42.3074 40.6421 42.2474 39.9921C42.2174 39.7021 42.1874 39.4021 42.1674 39.1021C42.1074 38.3221 42.0774 37.5221 42.0774 36.7021C42.0774 36.6121 42.0774 36.5121 42.0874 36.4121C42.0874 35.7121 42.1174 35.0121 42.1774 34.3321C42.2174 33.7421 42.2874 33.1621 42.3774 32.6021C42.8774 29.1321 43.9874 25.9021 45.5874 23.0721C45.9974 22.3621 46.4274 21.6821 46.8874 21.0221C48.4274 18.8121 50.3174 16.9121 52.4274 15.4221C52.5774 15.3021 52.7374 15.1921 52.8874 15.0921C53.0774 14.9621 53.2674 14.8321 53.4574 14.7121C54.2074 14.2521 54.9774 13.8321 55.7674 13.4721C59.1274 11.9421 63.1274 11.2421 66.7774 11.9421C66.9574 11.9621 67.1374 12.0021 67.3174 12.0321C68.8274 12.3221 70.2674 12.7721 71.6374 13.4021C72.0774 13.5921 72.5074 13.8021 72.9274 14.0321C73.5374 14.3521 74.1274 14.7021 74.7074 15.0921C74.7474 15.1221 74.8074 15.1621 74.8474 15.1921C75.4674 15.6121 76.0574 16.0521 76.6374 16.5421C78.3474 17.9821 79.8674 19.7121 81.1374 21.6621C81.4674 22.1621 81.7774 22.6721 82.0674 23.1921C82.1674 23.3421 82.2374 23.4921 82.3374 23.6621C83.7374 26.3321 84.7474 29.3221 85.2074 32.5321C85.2074 32.5521 85.2274 32.5721 85.2274 32.6021C85.3074 33.1621 85.3674 33.7421 85.4174 34.3321C85.4774 35.0121 85.5074 35.7121 85.5074 36.4121C85.5174 36.5121 85.5174 36.6121 85.5174 36.7021Z" fill="#2E2E2E"/>
<path d="M76.1874 21.6426C76.5824 24.5046 78.9594 26.9256 81.6784 27.2346" stroke="#2E2E2E" stroke-width="0.4822" stroke-miterlimit="10" stroke-linecap="round" stroke-linejoin="round"/>
<path d="M75.3734 19.9668C75.4794 22.4608 76.4604 24.9028 78.0834 26.7158C79.7064 28.5288 81.9574 29.6978 84.3064 29.9468" stroke="#2E2E2E" stroke-width="0.4822" stroke-miterlimit="10" stroke-linecap="round" stroke-linejoin="round"/>
<path d="M75.4994 21.4355C75.6054 23.9295 76.5864 26.3715 78.2094 28.1845C79.8324 29.9975 82.0834 31.1665 84.4324 31.4155" stroke="#2E2E2E" stroke-width="0.4822" stroke-miterlimit="10" stroke-linecap="round" stroke-linejoin="round"/>
<path d="M51.4025 21.6426C51.0075 24.5046 48.6305 26.9256 45.9115 27.2346" stroke="#2E2E2E" stroke-width="0.4822" stroke-miterlimit="10" stroke-linecap="round" stroke-linejoin="round"/>
<path d="M52.2174 19.9668C52.1114 22.4608 51.1304 24.9028 49.5084 26.7158C47.8854 28.5288 45.6344 29.6978 43.2854 29.9468" stroke="#2E2E2E" stroke-width="0.4822" stroke-miterlimit="10" stroke-linecap="round" stroke-linejoin="round"/>
<path d="M52.0904 21.4355C51.9844 23.9295 51.0034 26.3715 49.3814 28.1845C47.7584 29.9975 45.5074 31.1665 43.1584 31.4155" stroke="#2E2E2E" stroke-width="0.4822" stroke-miterlimit="10" stroke-linecap="round" stroke-linejoin="round"/>
<path d="M69.6205 38.7681C69.9745 37.5781 70.8385 36.6352 71.8575 35.9732C72.8855 35.3142 74.0935 34.9382 75.3155 34.8642C76.5375 34.7872 77.7825 35.0162 78.8825 35.5462C79.9735 36.0802 80.9455 36.9151 81.4375 38.0561C80.2125 37.9331 79.2225 37.8482 78.2595 37.8212C77.3045 37.7892 76.4005 37.8072 75.4955 37.8572C74.5915 37.9112 73.6905 38.0022 72.7465 38.1492C71.7925 38.2912 70.8195 38.4961 69.6205 38.7681Z" fill="#2E2E2E"/>
<path d="M58.9964 38.7691C57.7974 38.4971 56.8244 38.2921 55.8714 38.1511C54.9264 38.0041 54.0264 37.9131 53.1214 37.8591C52.2174 37.8081 51.3134 37.7911 50.3574 37.8231C49.3944 37.8501 48.4044 37.9361 47.1794 38.0581C47.6714 36.9161 48.6424 36.0811 49.7344 35.5481C50.8344 35.0181 52.0794 34.7891 53.3014 34.8661C54.5234 34.9401 55.7314 35.3171 56.7594 35.9751C57.7784 36.6361 58.6424 37.5791 58.9964 38.7691Z" fill="#2E2E2E"/>
<path d="M68.9115 45.2442C69.2025 44.8012 69.5124 44.3762 69.8164 43.9422C70.1614 43.5072 70.5365 43.0802 70.9885 42.7392C71.8685 42.0202 72.9735 41.6042 74.1005 41.4172C75.2365 41.2852 76.4195 41.3972 77.4855 41.8412C78.0225 42.0482 78.5174 42.3562 78.9834 42.6782C79.3974 43.0032 79.8215 43.3151 80.2285 43.6511L79.9385 43.5592C79.9205 43.5872 80.0795 43.5701 80.2015 43.5261C80.3335 43.4841 80.4735 43.4232 80.6125 43.3572C80.8885 43.2222 81.1715 43.0582 81.4185 42.8822L81.4295 42.8742C81.5285 42.8042 81.6645 42.8272 81.7355 42.9252C81.7935 43.0062 81.7875 43.1132 81.7295 43.1872C81.5105 43.4672 81.2795 43.7091 81.0215 43.9481C80.8915 44.0661 80.7555 44.1811 80.5985 44.2891C80.4315 44.3921 80.2865 44.5152 79.9395 44.5612C79.8575 44.5682 79.7785 44.5472 79.7135 44.5082L79.6484 44.4692C79.1964 44.1972 78.7625 43.9002 78.3185 43.6172C77.9095 43.3592 77.4985 43.1161 77.0445 42.9611C76.1585 42.6081 75.1895 42.4791 74.2355 42.5691C73.2825 42.6521 72.3385 42.9592 71.5165 43.4852C71.0895 43.7282 70.7255 44.0632 70.3665 44.4072C69.9925 44.7762 69.6294 45.1612 69.2454 45.5252C69.1574 45.6082 69.0185 45.6051 68.9355 45.5171C68.8645 45.4411 68.8575 45.3282 68.9115 45.2442Z" fill="#2E2E2E"/>
<path d="M72.5515 43.6424C72.6245 42.6294 73.5045 41.8674 74.5175 41.9404C75.5305 42.0134 76.2925 42.8934 76.2195 43.9064C76.1465 44.9194 75.2665 45.6814 74.2535 45.6084C73.2405 45.5354 72.4785 44.6554 72.5515 43.6424Z" fill="#2E2E2E"/>
<path d="M78.1224 45.0981C78.7984 44.9471 79.4394 44.64 79.9804 44.207" stroke="#2E2E2E" stroke-width="0.5" stroke-miterlimit="10" stroke-linecap="round" stroke-linejoin="round"/>
<path d="M69.0305 43.1843C70.0485 41.7753 71.6585 40.8073 73.3815 40.5703" stroke="#2E2E2E" stroke-width="0.5" stroke-miterlimit="10" stroke-linecap="round" stroke-linejoin="round"/>
<path d="M59.3704 45.5242C58.9864 45.1602 58.6234 44.7752 58.2494 44.4062C57.8904 44.0622 57.5264 43.7282 57.0994 43.4842C56.2774 42.9582 55.3334 42.6512 54.3804 42.5682C53.4274 42.4792 52.4574 42.6072 51.5714 42.9602C51.1184 43.1152 50.7064 43.3582 50.2974 43.6162C49.8534 43.9002 49.4184 44.1962 48.9674 44.4682L48.9024 44.5072C48.8314 44.5502 48.7534 44.5662 48.6764 44.5602C48.3304 44.5142 48.1834 44.3912 48.0164 44.2882C47.8594 44.1792 47.7234 44.0642 47.5934 43.9472C47.3354 43.7082 47.1044 43.4662 46.8854 43.1862C46.8104 43.0912 46.8274 42.9532 46.9234 42.8782C47.0014 42.8172 47.1084 42.8172 47.1854 42.8722L47.1964 42.8802C47.4434 43.0562 47.7264 43.2202 48.0034 43.3552C48.1424 43.4222 48.2824 43.4822 48.4144 43.5242C48.5354 43.5682 48.6954 43.5852 48.6774 43.5572L48.3874 43.6492C48.7944 43.3132 49.2174 43.0012 49.6324 42.6762C50.0984 42.3542 50.5924 42.0452 51.1304 41.8392C52.1964 41.3952 53.3794 41.2832 54.5154 41.4152C55.6424 41.6022 56.7474 42.0182 57.6274 42.7372C58.0794 43.0782 58.4544 43.5052 58.8004 43.9402C59.1044 44.3752 59.4144 44.7992 59.7054 45.2422C59.7724 45.3432 59.7434 45.4792 59.6424 45.5462C59.5554 45.6052 59.4434 45.5922 59.3704 45.5242Z" fill="#2E2E2E"/>
<path d="M56.0654 43.6424C55.9924 42.6294 55.1124 41.8674 54.0994 41.9404C53.0864 42.0134 52.3244 42.8934 52.3974 43.9064C52.4704 44.9194 53.3504 45.6814 54.3634 45.6084C55.3764 45.5354 56.1384 44.6554 56.0654 43.6424Z" fill="#2E2E2E"/>
<path d="M50.4944 45.0981C49.8184 44.9471 49.1774 44.64 48.6364 44.207" stroke="#2E2E2E" stroke-width="0.5" stroke-miterlimit="10" stroke-linecap="round" stroke-linejoin="round"/>
<path d="M59.5863 43.1843C58.5683 41.7753 56.9584 40.8073 55.2354 40.5703" stroke="#2E2E2E" stroke-width="0.5" stroke-miterlimit="10" stroke-linecap="round" stroke-linejoin="round"/>
<path d="M65.1714 55.9982C65.6704 55.7742 66.1124 55.4242 66.4464 54.9902" stroke="#2E2E2E" stroke-width="0.5" stroke-miterlimit="10" stroke-linecap="round" stroke-linejoin="round"/>
<path d="M63.4454 55.9982C62.9464 55.7742 62.5044 55.4242 62.1704 54.9902" stroke="#2E2E2E" stroke-width="0.5" stroke-miterlimit="10" stroke-linecap="round" stroke-linejoin="round"/>
<path d="M64.1294 47.1816V53.7546" stroke="#2E2E2E" stroke-width="0.5" stroke-miterlimit="10"/>
<path d="M70.8034 60.997L70.6234 61.171L70.6134 61.18C70.0234 61.474 69.3134 61.474 68.6434 61.4C67.9734 61.327 67.2934 61.189 66.6234 61.253C65.8134 61.326 65.0834 61.675 64.3034 61.858H64.2934C63.5034 61.674 62.7734 61.326 61.9734 61.253C61.2934 61.189 60.6234 61.326 59.9534 61.4C59.2834 61.473 58.5634 61.473 57.9734 61.171L57.8134 61.015C58.4934 61.043 59.7334 60.575 60.2234 60.226L60.4434 60.07C60.9734 59.675 61.5234 59.263 62.2134 59.07C62.8834 58.877 63.7834 58.978 64.2834 59.483C64.7934 58.978 65.6934 58.878 66.3634 59.07C67.0534 59.263 67.6034 59.675 68.1334 60.07L68.3534 60.235C68.8534 60.584 70.1234 61.033 70.8034 60.997Z" fill="#2E2E2E"/>
<path d="M62.1234 64.8301C62.2334 64.8671 62.3534 64.8941 62.4634 64.9131C62.8234 65.0141 63.2034 65.0781 63.5734 65.1061C63.6834 65.1241 63.7934 65.1241 63.9034 65.1331C63.9834 65.1331 64.0734 65.1421 64.1534 65.1421C64.2034 65.1421 64.2534 65.1421 64.3034 65.1421C64.3134 65.1421 64.3234 65.1421 64.3334 65.1421" stroke="#2E2E2E" stroke-width="0.3808" stroke-miterlimit="10" stroke-linecap="round" stroke-linejoin="round"/>
<path d="M70.6134 61.1809C69.9734 62.6579 68.7734 63.8869 67.1934 64.5569C66.3034 64.9419 65.3134 65.1349 64.3334 65.1439C64.3234 65.1439 64.3134 65.1439 64.3034 65.1439C64.2534 65.1439 64.2034 65.1439 64.1534 65.1439C64.0734 65.1439 63.9834 65.1349 63.9034 65.1349C63.7934 65.1259 63.6834 65.1169 63.5734 65.1079C63.2034 65.0709 62.8234 65.0069 62.4634 64.9149C62.0934 64.8229 61.7334 64.7039 61.3934 64.5569C59.8234 63.8869 58.6034 62.6489 57.9734 61.1719C58.5634 61.4749 59.2834 61.4749 59.9534 61.4009C60.6234 61.3279 61.2934 61.1899 61.9734 61.2539C62.7734 61.3269 63.5034 61.6759 64.2934 61.8589H64.3034C65.0834 61.6749 65.8134 61.3269 66.6234 61.2539C67.2934 61.1899 67.9734 61.3269 68.6434 61.4009C69.3134 61.4749 70.0234 61.4749 70.6134 61.1809ZM70.6134 61.1809L70.6234 61.1719L70.8034 60.9979C70.1234 61.0349 68.8534 60.5849 68.3534 60.2369L68.1334 60.0719C67.6034 59.6769 67.0534 59.2649 66.3634 59.0719C65.6934 58.8789 64.7934 58.9799 64.2834 59.4849C63.7834 58.9799 62.8834 58.8799 62.2134 59.0719C61.5234 59.2649 60.9734 59.6769 60.4434 60.0719L60.2234 60.2279C59.7334 60.5759 58.4934 61.0439 57.8134 61.0169L57.9734 61.1729" stroke="#2E2E2E" stroke-width="0.3808" stroke-miterlimit="10" stroke-linecap="round" stroke-linejoin="round"/>
<path d="M70.5114 61.3887C69.7674 61.8967 68.7064 62.3117 67.4124 62.5677C66.4404 62.7637 65.3594 62.8617 64.2884 62.8657C64.2774 62.8657 64.2664 62.8657 64.2554 62.8657C64.2004 62.8657 64.1464 62.8657 64.0914 62.8657C64.0044 62.8657 63.9054 62.8607 63.8184 62.8607C63.6984 62.8557 63.5784 62.8516 63.4584 62.8466C63.0544 62.8276 62.6394 62.7957 62.2464 62.7487C61.8424 62.7017 61.4494 62.6417 61.0774 62.5667C59.9144 62.3357 58.9274 61.9726 58.1984 61.5276" stroke="#2E2E2E" stroke-width="0.2837" stroke-miterlimit="10" stroke-linecap="round" stroke-linejoin="round"/>
<path d="M19.5275 126.541C27.6485 130.205 35.0635 131.335 36.0875 129.064C37.1125 126.793 31.3595 121.981 23.2385 118.316C15.1175 114.652 7.70254 113.522 6.67854 115.793C5.65354 118.065 11.4065 122.877 19.5275 126.541Z" fill="#2E2E2E"/>
<path d="M0.239502 152.993C0.269502 152.893 0.3095 152.803 0.3395 152.703L11.1595 121.793L13.5195 115.053L18.2795 101.453C19.7895 97.1232 22.9995 93.9632 26.6695 92.6732C27.8595 92.2532 29.0995 92.0332 30.3395 92.0332C31.4795 92.0332 32.6195 92.2232 33.7395 92.6132C40.1195 94.8532 42.9795 102.853 39.9695 110.043L33.7695 124.803L31.5195 130.153L29.6895 134.513L21.9195 152.993" fill="#F5F5FF"/>
<path d="M0.239502 152.993C0.269502 152.893 0.3095 152.803 0.3395 152.703L11.1595 121.793L13.5195 115.053L18.2795 101.453C19.7895 97.1232 22.9995 93.9632 26.6695 92.6732C27.8595 92.2532 29.0995 92.0332 30.3395 92.0332C31.4795 92.0332 32.6195 92.2232 33.7395 92.6132C40.1195 94.8532 42.9795 102.853 39.9695 110.043L33.7695 124.803L31.5195 130.153L29.6895 134.513L21.9195 152.993" stroke="#2E2E2E" stroke-width="0.5" stroke-miterlimit="10"/>
<path d="M6.85352 115.517C8.35452 113.622 15.4685 114.815 23.2345 118.311C31.3575 121.979 37.1175 126.791 36.0835 129.068C36.0585 129.117 36.0345 129.154 35.9975 129.203L36.0835 129.24L45.0555 108.206C48.5755 99.9482 44.7725 90.5322 36.7725 87.7392C35.2585 87.2102 33.7205 86.9512 32.1815 86.9512C26.7045 86.9512 21.4495 90.2002 18.7535 95.4682L6.85352 115.517Z" fill="#2E2E2E"/>
<path d="M107.27 126.541C99.1486 130.205 91.7336 131.335 90.7086 129.064C89.6836 126.793 95.4366 121.981 103.558 118.316C111.679 114.652 119.094 113.522 120.119 115.793C121.144 118.065 115.391 122.877 107.27 126.541Z" fill="#2E2E2E"/>
<path d="M104.88 152.993L96.6396 133.403L95.2796 130.153L93.0296 124.803L91.5396 121.263L89.0096 115.223L86.8296 110.043C83.8096 102.853 86.6796 94.8532 93.0596 92.6132C94.1696 92.2232 95.3196 92.0332 96.4496 92.0332C97.4596 92.0332 98.4596 92.1832 99.4396 92.4632C103.39 93.5732 106.91 96.8632 108.52 101.453L113.28 115.053L115.64 121.793L126.46 152.703C126.49 152.803 126.53 152.893 126.56 152.993" fill="#F5F5FF"/>
<path d="M104.88 152.993L96.6396 133.403L95.2796 130.153L93.0296 124.803L91.5396 121.263L89.0096 115.223L86.8296 110.043C83.8096 102.853 86.6796 94.8532 93.0596 92.6132C94.1696 92.2232 95.3196 92.0332 96.4496 92.0332C97.4596 92.0332 98.4596 92.1832 99.4396 92.4632C103.39 93.5732 106.91 96.8632 108.52 101.453L113.28 115.053L115.64 121.793L126.46 152.703C126.49 152.803 126.53 152.893 126.56 152.993" stroke="#2E2E2E" stroke-width="0.5" stroke-miterlimit="10"/>
<path d="M119.944 115.517C118.442 113.622 111.329 114.815 103.563 118.311C95.4395 121.979 89.6795 126.791 90.7135 129.068C90.7385 129.117 90.7625 129.154 90.7995 129.203L90.7135 129.24L81.7415 108.206C78.2215 99.9482 82.0245 90.5322 90.0245 87.7392C91.5385 87.2102 93.0765 86.9512 94.6155 86.9512C100.093 86.9512 105.348 90.2002 108.044 95.4682L119.944 115.517Z" fill="#2E2E2E"/>
<path d="M99.6854 105.117L97.1255 117.357C97.6355 118.477 98.0355 119.657 98.3055 120.887C98.5855 122.167 98.7355 123.487 98.7355 124.847C98.7355 126.467 98.5255 128.047 98.1155 129.547C97.7755 130.847 97.2954 132.087 96.6854 133.247C95.6854 135.167 94.3655 136.897 92.7755 138.347L89.7654 152.837H35.5954L32.5855 137.937C31.4955 136.877 30.5355 135.667 29.7355 134.357C28.7855 132.797 28.0555 131.087 27.6055 129.267C27.2555 127.857 27.0654 126.377 27.0654 124.847C27.0654 123.297 27.2655 121.787 27.6255 120.347C27.8555 119.437 28.1454 118.557 28.4954 117.707L25.9554 105.117C24.8654 100.477 25.0755 95.9374 26.7155 92.5174C28.0655 89.6774 30.4055 87.6174 33.8055 86.8874C34.6655 86.7074 35.6055 86.6074 36.6155 86.6074H90.3555C91.3555 86.6074 92.2755 86.7074 93.1155 86.8874C96.3355 87.5874 98.3855 89.5774 99.4855 92.3074C100.895 95.7584 100.795 100.388 99.6854 105.117Z" fill="#F5F5FF" stroke="#2E2E2E" stroke-width="0.5" stroke-miterlimit="10" stroke-linecap="round" stroke-linejoin="round"/>
<path d="M74.8115 85.9688L79.0745 86.6088C76.6545 92.8888 70.4445 97.7387 63.6645 98.0287C56.3845 98.3487 49.3045 93.3688 46.7345 86.6088L52.7835 85.9688" fill="#F5F5FF"/>
<path d="M74.8115 85.9688L79.0745 86.6088C76.6545 92.8888 70.4445 97.7387 63.6645 98.0287C56.3845 98.3487 49.3045 93.3688 46.7345 86.6088L52.7835 85.9688" stroke="#2E2E2E" stroke-width="0.5" stroke-miterlimit="10" stroke-linecap="round" stroke-linejoin="round"/>
</svg>
