<svg width="135" height="156" viewBox="0 0 135 156" fill="none" xmlns="http://www.w3.org/2000/svg">
<rect width="134.283" height="155.028" transform="translate(0.267578 0.287109)" fill="white"/>
<path d="M67.4096 123.408C100.888 123.408 128.028 96.2683 128.028 62.7899C128.028 29.3115 100.888 2.17188 67.4096 2.17188C33.9312 2.17188 6.79163 29.3115 6.79163 62.7899C6.79163 96.2683 33.9312 123.408 67.4096 123.408Z" fill="#C91610"/>
<path d="M113.489 132.895C104.372 137.009 96.0476 138.277 94.8976 135.727C93.7476 133.177 100.206 127.776 109.323 123.662C118.44 119.548 126.764 118.28 127.914 120.83C129.064 123.38 122.606 128.782 113.489 132.895Z" fill="#2E2E2E"/>
<path d="M109.707 155.314L105.363 144.978L101.885 136.696L98.9525 129.709L92.5115 114.376C89.1195 106.308 92.3295 97.3201 99.4985 94.8061C100.75 94.3671 102.034 94.1641 103.307 94.1641C103.425 94.1641 103.543 94.164 103.661 94.175C109.236 94.336 114.65 98.4341 116.854 104.736L122.086 119.673L124.428 126.371L134.55 155.315" fill="#F5F5FF"/>
<path d="M109.707 155.314L105.363 144.978L101.885 136.696L98.9525 129.709L92.5115 114.376C89.1195 106.308 92.3295 97.3201 99.4985 94.8061C100.75 94.3671 102.034 94.1641 103.307 94.1641C103.425 94.1641 103.543 94.164 103.661 94.175C109.236 94.336 114.65 98.4341 116.854 104.736L122.086 119.673L124.428 126.371L134.55 155.315" stroke="#2E2E2E" stroke-width="0.535" stroke-miterlimit="10" stroke-linecap="round" stroke-linejoin="round"/>
<path d="M127.717 120.521C126.031 118.393 118.045 119.733 109.327 123.657C100.208 127.774 93.7416 133.177 94.9016 135.733C94.9296 135.788 94.9565 135.83 94.9985 135.885L94.9016 135.927L84.8295 112.314C80.8775 103.043 85.1475 92.4731 94.1285 89.3371C95.8275 88.7431 97.5545 88.4531 99.2825 88.4531C105.431 88.4531 111.331 92.1011 114.357 98.0141L127.717 120.521Z" fill="#2E2E2E"/>
<path d="M21.3296 132.895C30.4466 137.009 38.7706 138.277 39.9206 135.727C41.0706 133.177 34.6126 127.776 25.4956 123.662C16.3786 119.548 8.05456 118.28 6.90456 120.83C5.75456 123.38 12.2126 128.782 21.3296 132.895Z" fill="#2E2E2E"/>
<path d="M0.267578 155.313L10.3896 126.38L12.7326 119.671L17.9646 104.734C20.2116 98.3031 25.8076 94.1621 31.4996 94.1621H31.5746C32.8266 94.1731 34.0786 94.3761 35.3086 94.8041C42.4776 97.3181 45.6986 106.307 42.3066 114.374L35.8656 129.707V129.718L32.9336 136.694L29.8096 144.13L25.1126 155.312" fill="#F5F5FF"/>
<path d="M0.267578 155.313L10.3896 126.38L12.7326 119.671L17.9646 104.734C20.2116 98.3031 25.8076 94.1621 31.4996 94.1621H31.5746C32.8266 94.1731 34.0786 94.3761 35.3086 94.8041C42.4776 97.3181 45.6986 106.307 42.3066 114.374L35.8656 129.707V129.718L32.9336 136.694L29.8096 144.13L25.1126 155.312" stroke="#2E2E2E" stroke-width="0.535" stroke-miterlimit="10" stroke-linecap="round" stroke-linejoin="round"/>
<path d="M7.10156 120.521C8.78756 118.393 16.7736 119.733 25.4916 123.657C34.6106 127.774 41.0766 133.177 39.9166 135.733C39.8886 135.788 39.8616 135.83 39.8196 135.885L39.9166 135.927L49.9886 112.314C53.9406 103.043 49.6706 92.4731 40.6896 89.3371C38.9906 88.7431 37.2626 88.4531 35.5356 88.4531C29.3876 88.4531 23.4876 92.1011 20.4616 98.0141L7.10156 120.521Z" fill="#2E2E2E"/>
<path d="M83.5375 41.361C81.0645 45.334 81.3035 50.04 84.0715 51.872C86.8395 53.704 91.0895 51.97 93.5635 47.997C96.0375 44.024 95.7976 39.319 93.0296 37.486C90.2606 35.654 86.0115 37.388 83.5375 41.361Z" fill="#F5F5FF" stroke="#2E2E2E" stroke-width="0.535" stroke-miterlimit="10" stroke-linecap="round" stroke-linejoin="round"/>
<path d="M90.9465 39.3926C92.1455 39.8606 93.0565 40.9996 93.2505 42.2716C93.4445 43.5436 92.9145 44.9026 91.9095 45.7076" stroke="#2E2E2E" stroke-width="0.535" stroke-miterlimit="10" stroke-linecap="round" stroke-linejoin="round"/>
<path d="M50.1456 41.361C52.6186 45.334 52.3796 50.04 49.6116 51.872C46.8436 53.704 42.5936 51.97 40.1196 47.997C37.6466 44.024 37.8856 39.319 40.6536 37.486C43.4226 35.654 47.6726 37.388 50.1456 41.361Z" fill="#F5F5FF" stroke="#2E2E2E" stroke-width="0.535" stroke-miterlimit="10" stroke-linecap="round" stroke-linejoin="round"/>
<path d="M42.7366 39.3926C41.5376 39.8606 40.6266 40.9996 40.4326 42.2716C40.2386 43.5436 40.7686 44.9026 41.7736 45.7076" stroke="#2E2E2E" stroke-width="0.535" stroke-miterlimit="10" stroke-linecap="round" stroke-linejoin="round"/>
<path d="M79.1156 85.8844C79.3386 92.6024 73.9626 98.1574 67.2446 98.1574C60.6606 98.1574 55.3625 92.8144 55.3625 86.2864C55.3625 86.1524 55.3626 86.0184 55.3736 85.8844L56.6926 68.1794L57.0276 63.6974L57.6876 54.9004H76.7905L77.8416 68.8054L78.5906 78.9214L79.1156 85.8844Z" fill="#F5F5FF" stroke="#2E2E2E" stroke-width="0.5589" stroke-miterlimit="10" stroke-linecap="round" stroke-linejoin="round"/>
<path d="M78.5906 78.9194C72.3196 79.3664 65.4126 76.2484 60.6726 70.1894C59.0746 68.1554 57.8556 65.9534 57.0286 63.6954L57.6886 54.8984H76.7916L77.8426 68.8034L78.5906 78.9194Z" fill="#2E2E2E"/>
<path d="M87.7616 52.2864C87.0236 54.2014 85.9426 56.1914 84.6476 58.1284C82.1546 61.8414 78.8586 65.3294 75.5636 67.5444C71.9466 69.9734 67.2066 70.7654 63.0876 69.3524C59.8456 68.2504 57.1706 65.9284 54.7846 63.4784C51.7996 60.4184 49.0706 56.9944 47.5406 52.9924C46.3636 49.8894 45.8496 46.4334 45.7106 42.9024C45.6466 41.0514 45.6786 39.1894 45.7646 37.3274C45.9146 34.2674 46.2036 31.2394 46.4706 28.4354C47.0806 21.8014 51.1036 15.4994 56.8386 12.1174C62.4666 8.81141 69.6466 8.31941 75.6706 10.8334C81.6946 13.3474 86.4026 18.8044 87.9966 25.1284C89.0666 29.3764 88.7886 33.7744 88.7986 38.0964C88.7986 38.3634 88.7986 38.6204 88.8096 38.8884C88.8306 40.1834 88.8956 41.4774 88.9166 42.7834C89.0136 46.0164 88.9496 49.2374 87.7616 52.2864Z" fill="#F5F5FF" stroke="#2E2E2E" stroke-width="0.535" stroke-miterlimit="10" stroke-linecap="round" stroke-linejoin="round"/>
<path d="M63.9726 30.9745C65.8116 31.0605 67.7096 30.7985 69.3166 29.9115C70.9236 29.0245 72.2006 27.4475 72.4196 25.6385C73.6326 28.0295 75.9296 29.8574 78.5496 30.5164C81.1686 31.1754 84.0645 30.6525 86.2775 29.1225C89.0295 27.2195 90.6126 23.5114 89.4166 20.4004C88.0976 16.9684 84.1496 15.3594 80.5266 14.5724C73.4676 13.0394 66.0486 13.2355 59.0686 15.0475C56.9156 15.6065 50.9236 16.7054 50.1046 19.0414C49.2646 21.4374 52.6926 25.2734 54.2576 26.7394C56.8786 29.1954 60.3496 30.8045 63.9726 30.9745Z" fill="#2E2E2E"/>
<path d="M72.7906 33.4315C73.7216 32.8725 74.7396 32.4884 75.8126 32.2014C76.8866 31.9254 78.0276 31.7674 79.2046 31.8094C80.3756 31.8474 81.5936 32.1165 82.6616 32.6785C83.7306 33.2315 84.6136 34.0954 85.0806 35.1324C84.0006 34.7764 83.0286 34.5895 82.0996 34.5605C81.1706 34.5305 80.2826 34.6495 79.3816 34.8115C77.5766 35.1325 75.7426 35.7594 73.6786 36.0164C72.9136 36.1114 72.2156 35.5685 72.1206 34.8035C72.0496 34.2385 72.3326 33.7075 72.7906 33.4315Z" fill="#2E2E2E"/>
<path d="M63.1276 36.0164C61.0636 35.7594 59.2306 35.1335 57.4246 34.8115C56.5236 34.6495 55.6356 34.5295 54.7066 34.5605C53.7776 34.5895 52.8056 34.7764 51.7256 35.1324C52.1926 34.0954 53.0756 33.2325 54.1446 32.6785C55.2126 32.1165 56.4306 31.8474 57.6016 31.8094C58.7776 31.7674 59.9196 31.9254 60.9936 32.2014C62.0666 32.4884 63.0846 32.8725 64.0156 33.4315C64.6776 33.8265 64.8946 34.6835 64.4996 35.3465C64.2086 35.8345 63.6586 36.0794 63.1276 36.0164Z" fill="#2E2E2E"/>
<path d="M62.9776 42.9447C62.5646 42.6127 62.1686 42.2597 61.7676 41.9187C61.3846 41.6027 60.9936 41.2996 60.5496 41.0916C59.6986 40.6126 58.7286 40.4046 57.7766 40.3726C56.8196 40.3646 55.8686 40.5537 54.9946 40.9447C54.5526 41.1327 54.1456 41.3856 53.7436 41.6666C53.3246 41.9856 52.9086 42.3096 52.3316 42.4376C52.1996 42.4666 52.0686 42.3836 52.0396 42.2516C52.0276 42.1996 52.0336 42.1466 52.0536 42.1006C52.2886 41.5586 52.6856 41.2116 53.0786 40.8596C53.5076 40.4956 53.9646 40.1316 54.4846 39.8856C55.5006 39.3376 56.6826 39.1276 57.8276 39.1876C58.9726 39.2726 60.1016 39.6356 61.0416 40.2746C61.5186 40.5846 61.9216 40.9886 62.2986 41.3976C62.6346 41.8096 62.9696 42.2156 63.2906 42.6396C63.3636 42.7366 63.3446 42.8747 63.2476 42.9477C63.1666 43.0107 63.0546 43.0057 62.9776 42.9447Z" fill="#2E2E2E"/>
<path d="M59.5386 41.309C59.3916 40.303 58.4566 39.607 57.4496 39.754C56.4436 39.901 55.7476 40.836 55.8946 41.843C56.0416 42.849 56.9766 43.545 57.9836 43.398C58.9896 43.25 59.6856 42.315 59.5386 41.309Z" fill="#2E2E2E"/>
<path d="M62.9236 42.8281C62.0686 43.3641 61.0546 43.6681 59.9836 43.7091" stroke="#2E2E2E" stroke-width="0.5006" stroke-miterlimit="10" stroke-linecap="round" stroke-linejoin="round"/>
<path d="M63.0206 40.5908C61.9006 39.2588 60.2216 38.4108 58.4836 38.3008" stroke="#2E2E2E" stroke-width="0.5006" stroke-miterlimit="10" stroke-linecap="round" stroke-linejoin="round"/>
<path d="M72.3666 42.6394C72.6866 42.2154 73.0226 41.8104 73.3576 41.3974C73.7346 40.9884 74.1376 40.5844 74.6146 40.2744C75.5546 39.6354 76.6837 39.2724 77.8287 39.1874C78.9737 39.1284 80.1556 39.3374 81.1716 39.8854C81.6926 40.1314 82.1486 40.4954 82.5776 40.8594C82.9706 41.2104 83.3666 41.5574 83.6026 42.1004C83.6566 42.2244 83.5996 42.3684 83.4756 42.4224C83.4266 42.4434 83.3736 42.4474 83.3246 42.4364C82.7476 42.3084 82.3316 41.9844 81.9126 41.6654C81.5106 41.3854 81.1036 41.1314 80.6616 40.9434C79.7876 40.5514 78.8367 40.3634 77.8797 40.3714C76.9287 40.4034 75.9576 40.6114 75.1066 41.0904C74.6626 41.2984 74.2717 41.6014 73.8887 41.9174C73.4877 42.2584 73.0926 42.6114 72.6796 42.9434C72.5856 43.0194 72.4466 43.0044 72.3706 42.9104C72.3066 42.8304 72.3076 42.7184 72.3666 42.6394Z" fill="#2E2E2E"/>
<path d="M76.1186 41.309C76.2656 40.303 77.2006 39.607 78.2076 39.754C79.2136 39.901 79.9096 40.836 79.7626 41.843C79.6156 42.849 78.6806 43.545 77.6746 43.398C76.6676 43.25 75.9716 42.315 76.1186 41.309Z" fill="#2E2E2E"/>
<path d="M72.7336 42.8262C73.5886 43.3622 74.6027 43.6662 75.6737 43.7072" stroke="#2E2E2E" stroke-width="0.5006" stroke-miterlimit="10" stroke-linecap="round" stroke-linejoin="round"/>
<path d="M72.6366 40.5908C73.7566 39.2588 75.4356 38.4108 77.1736 38.3008" stroke="#2E2E2E" stroke-width="0.5006" stroke-miterlimit="10" stroke-linecap="round" stroke-linejoin="round"/>
<path d="M66.5707 56.5367C66.8937 56.8487 67.3407 57.0287 67.7887 57.0277C68.2377 57.0277 68.6837 56.8467 69.0067 56.5357C69.5117 56.0477 70.4237 56.3467 71.1187 56.4477C71.8137 56.5487 72.5257 56.6887 73.2117 56.5397C73.7027 56.4337 74.1507 56.1407 74.4257 55.7207" stroke="#2E2E2E" stroke-width="0.4456" stroke-miterlimit="10" stroke-linecap="round" stroke-linejoin="round"/>
<path d="M66.5707 56.5355C66.0657 56.0475 65.1537 56.3465 64.4587 56.4475C63.7637 56.5485 63.0527 56.6885 62.3657 56.5395C61.8157 56.4205 61.3117 56.0175 61.1497 55.4785" stroke="#2E2E2E" stroke-width="0.4456" stroke-miterlimit="10" stroke-linecap="round" stroke-linejoin="round"/>
<path d="M64.5687 58.5215C66.3537 59.1415 68.3207 59.2245 70.1507 58.7565" stroke="#2E2E2E" stroke-width="0.4456" stroke-miterlimit="10" stroke-linecap="round" stroke-linejoin="round"/>
<path d="M67.6736 64.5742V67.8872" stroke="#2E2E2E" stroke-width="0.535" stroke-miterlimit="10" stroke-linecap="round" stroke-linejoin="round"/>
<path d="M67.8236 49.7172V42.6582" stroke="#2E2E2E" stroke-width="0.535" stroke-miterlimit="10" stroke-linecap="round" stroke-linejoin="round"/>
<path d="M65.4576 51.0957L66.6487 51.9117C67.4197 52.4397 68.2586 52.4397 69.0296 51.9117L70.2206 51.0957" stroke="#2E2E2E" stroke-width="0.5731" stroke-miterlimit="10" stroke-linecap="round" stroke-linejoin="round"/>
<path d="M88.7996 38.0993C88.2536 37.8743 87.7726 37.5004 87.3876 37.0504C86.7456 36.3124 86.3606 35.3923 86.0396 34.4613C84.6056 30.3523 84.5416 25.5054 85.3016 21.2144C80.4336 21.2894 75.7256 18.2614 73.5746 13.8854C67.9576 17.4704 61.4726 18.9573 54.8286 18.6253C54.5826 25.7513 51.1476 32.6854 45.7656 37.3294C45.9156 34.2694 46.2046 31.2414 46.4716 28.4374C47.0816 21.8034 51.1046 15.5014 56.8396 12.1194C62.4676 8.81336 69.6476 8.32137 75.6716 10.8354C81.6956 13.3494 86.4036 18.8063 87.9976 25.1303C89.0676 29.3783 88.7896 33.7763 88.7996 38.0993Z" fill="#2E2E2E"/>
<path d="M44.1466 21.0684C45.6496 12.3954 53.8896 1.75537 63.8216 0.430368C73.7536 -0.894632 84.5746 7.20437 88.9046 15.0994C74.3286 19.6834 59.5466 22.3314 44.1466 21.0684Z" fill="#F5F5FF" stroke="#2E2E2E" stroke-width="0.5756" stroke-miterlimit="10" stroke-linecap="round" stroke-linejoin="round"/>
<path d="M91.0176 18.0884C84.6796 22.9024 76.1596 25.0715 67.7756 26.0835C59.3906 27.0955 50.8686 27.0925 42.5116 28.2635C41.4356 26.8905 40.9826 25.6135 41.2226 23.9695C41.4626 22.3255 42.4146 20.7615 43.8536 19.6475C59.4656 18.7025 74.9056 16.2045 89.4926 11.3145C90.2156 11.3245 92.4096 15.8234 91.0176 18.0884Z" fill="#F5F5FF" stroke="#2E2E2E" stroke-width="0.4995" stroke-miterlimit="10" stroke-linecap="round" stroke-linejoin="round"/>
<path d="M46.8166 27.6754C46.0156 25.6164 46.2526 23.1824 47.4366 21.3164" stroke="#2E2E2E" stroke-width="0.535" stroke-miterlimit="10" stroke-linecap="round" stroke-linejoin="round"/>
<path d="M84.5266 14.9531C85.8226 16.5971 86.6656 18.5941 86.9426 20.6691" stroke="#2E2E2E" stroke-width="0.535" stroke-miterlimit="10" stroke-linecap="round" stroke-linejoin="round"/>
<path d="M76.0116 17.7598C77.2256 19.7078 77.9726 21.9438 78.1716 24.2298" stroke="#2E2E2E" stroke-width="0.535" stroke-miterlimit="10" stroke-linecap="round" stroke-linejoin="round"/>
<path d="M53.4316 21.0957C52.9216 23.1647 53.3716 25.4487 54.6276 27.1707" stroke="#2E2E2E" stroke-width="0.535" stroke-miterlimit="10" stroke-linecap="round" stroke-linejoin="round"/>
<path d="M64.8496 20.1582C65.5716 22.1132 65.9456 24.1952 65.9486 26.2792" stroke="#2E2E2E" stroke-width="0.535" stroke-miterlimit="10" stroke-linecap="round" stroke-linejoin="round"/>
<path d="M59.8816 21.7598C59.6826 23.6128 60.3897 25.5428 61.7397 26.8288C61.7707 26.7178 61.8027 26.6068 61.8337 26.4958" stroke="#2E2E2E" stroke-width="0.535" stroke-miterlimit="10" stroke-linecap="round" stroke-linejoin="round"/>
<path d="M71.6586 20.4707C72.0786 21.9737 72.1486 23.5737 71.8606 25.1067" stroke="#2E2E2E" stroke-width="0.535" stroke-miterlimit="10" stroke-linecap="round" stroke-linejoin="round"/>
<path d="M105.716 155.312H29.4146L29.8096 144.13L30.0885 136.063L30.4416 126.155L31.5755 94.161L31.7466 89.4L34.2076 88.512L48.5135 83.344L51.2746 82.349L52.6436 81.846L56.2176 80.562L57.2986 80.166H77.9495L78.3775 80.326L82.3895 81.771L83.7486 82.263L86.5096 83.258L101.233 88.576L103.501 89.4L103.662 94.172L104.272 112.191L104.732 125.962L105.064 135.924V135.977L105.363 144.976L105.716 155.312Z" fill="#2E2E2E"/>
</svg>
