<svg width="127" height="152" viewBox="0 0 127 152" fill="none" xmlns="http://www.w3.org/2000/svg">
<rect width="126.32" height="151.531" transform="translate(0.25)" fill="white"/>
<path d="M63.41 121.236C96.8884 121.236 124.028 94.0964 124.028 60.618C124.028 27.1396 96.8884 0 63.41 0C29.9316 0 2.79199 27.1396 2.79199 60.618C2.79199 94.0964 29.9316 121.236 63.41 121.236Z" fill="#C91054"/>
<path d="M95.478 63.5515C94.38 53.0445 92.002 42.6745 88.439 32.7295C88.334 31.2265 88.106 29.7605 87.757 28.3455C86.664 23.9305 84.42 19.9845 81.39 16.8605C77.802 13.1615 73.121 10.6135 67.87 9.81448C67.699 9.79148 67.528 9.75548 67.357 9.73248C67.141 9.69748 66.924 9.67348 66.708 9.65048C66.298 9.60348 65.888 9.58049 65.478 9.55649C65.159 9.53349 64.817 9.52148 64.499 9.52148H64.226C64.146 9.52148 64.078 9.52148 63.998 9.53348C63.987 9.52148 63.975 9.52148 63.964 9.53348C52.745 9.65048 43.349 17.6125 40.683 28.3465C40.536 28.9425 40.417 29.5485 40.312 30.1605C34.628 42.1375 32.693 55.9475 32.912 69.3285C33.791 67.0275 35.192 64.9265 36.978 63.2305C35.32 66.8205 35.353 71.1325 37.018 74.7165L37.001 74.9555H37.122C37.143 74.9995 37.158 75.0465 37.18 75.0905L37.202 74.9555H91.088L90.882 74.4315C91.511 74.2565 92.31 74.3025 92.856 74.0465C92.74 72.6615 92.623 71.2765 92.507 69.8905C93.201 70.9615 93.946 71.4025 94.64 72.4735C94.206 68.9425 93.625 64.6955 92.63 61.2795C93.763 61.9645 94.901 62.3575 95.478 63.5515Z" fill="#2E2E2E"/>
<path d="M75.626 88.4686C75.843 95.0846 70.655 100.572 64.183 100.572C57.847 100.572 52.74 95.3116 52.74 88.8576C52.74 88.7316 52.74 88.5956 52.749 88.4686L54.023 70.9966L54.186 68.7456L54.981 57.8906H73.384L74.207 69.1526L74.388 71.6106L75.626 88.4686Z" fill="#F5F5FF" stroke="#2E2E2E" stroke-width="0.5" stroke-miterlimit="10" stroke-linecap="round" stroke-linejoin="round"/>
<path d="M74.987 79.9274C69.187 80.6374 62.647 77.8473 58.217 72.1873C56.417 69.8973 55.167 67.3774 54.447 64.8274L54.967 57.7773H73.367L74.187 69.0374L74.377 71.4973L74.987 79.9274Z" fill="#2E2E2E"/>
<path d="M79.79 40.3781C77.478 44.0911 77.702 48.4891 80.289 50.2021C82.876 51.9151 86.848 50.293 89.16 46.58C91.472 42.867 91.248 38.4691 88.661 36.7571C86.074 35.0441 82.102 36.6651 79.79 40.3781Z" fill="#F5F5FF" stroke="#2E2E2E" stroke-width="0.5" stroke-miterlimit="10" stroke-linecap="round" stroke-linejoin="round"/>
<path d="M86.7151 38.5391C87.8361 38.9771 88.6871 40.0411 88.8691 41.2301C89.0511 42.4191 88.5551 43.6891 87.6161 44.4411" stroke="#2E2E2E" stroke-width="0.5" stroke-miterlimit="10" stroke-linecap="round" stroke-linejoin="round"/>
<path d="M48.5831 40.3781C50.8951 44.0911 50.6711 48.4891 48.0841 50.2021C45.4971 51.9151 41.5251 50.293 39.2131 46.58C36.9011 42.867 37.1251 38.4691 39.7121 36.7571C42.3001 35.0441 46.2711 36.6651 48.5831 40.3781Z" fill="#F5F5FF" stroke="#2E2E2E" stroke-width="0.5" stroke-miterlimit="10" stroke-linecap="round" stroke-linejoin="round"/>
<path d="M41.659 38.5391C40.538 38.9771 39.687 40.0411 39.505 41.2301C39.323 42.4191 39.819 43.6891 40.758 44.4411" stroke="#2E2E2E" stroke-width="0.5" stroke-miterlimit="10" stroke-linecap="round" stroke-linejoin="round"/>
<path d="M85.907 34.2402C85.907 34.5902 85.907 34.9302 85.887 35.2602C85.847 36.2602 85.767 37.2702 85.637 38.2502L85.497 39.6502L85.437 40.4102L85.337 41.5102C85.277 42.1802 85.237 42.8402 85.187 43.5002C85.167 43.9202 85.147 44.3302 85.117 44.7502C85.027 46.4102 84.937 48.0602 84.717 49.7002C84.717 49.7302 84.697 49.7602 84.697 49.7802C84.657 50.0902 84.607 50.4102 84.547 50.7102C84.547 50.7202 84.547 50.7202 84.547 50.7202C84.487 51.0602 84.427 51.3902 84.337 51.7202C84.237 52.2202 84.107 52.7102 83.947 53.2102V53.2202C83.907 53.4002 83.847 53.5702 83.777 53.7602C83.667 54.1202 83.517 54.4902 83.377 54.8602C82.987 55.8302 82.517 56.7702 81.977 57.7102C79.747 61.6102 76.317 65.1902 72.887 67.5602C72.867 67.5902 72.847 67.6003 72.837 67.6003C72.417 67.9003 71.997 68.1702 71.587 68.4202C67.397 70.9802 62.447 71.1202 58.107 68.9102C57.207 68.4602 56.337 67.9402 55.497 67.3202C55.487 67.3202 55.477 67.3202 55.467 67.3002C52.147 64.9302 49.287 61.4902 47.147 57.7102C46.987 57.4402 46.847 57.1802 46.697 56.9102C46.627 56.7702 46.557 56.6202 46.487 56.4802C46.367 56.2502 46.247 56.0002 46.127 55.7502C45.787 55.1002 45.487 54.4202 45.207 53.7602C45.137 53.5702 45.057 53.3902 44.997 53.2002C43.987 50.5402 43.627 47.5702 43.387 44.6402C43.347 44.1902 43.307 43.7202 43.277 43.2702C43.237 42.7602 43.197 42.2402 43.157 41.7402L43.037 40.3702C43.007 40.2202 42.987 40.0702 42.967 39.9302C42.927 39.7602 42.907 39.6002 42.887 39.4302C42.777 38.8102 42.697 38.1802 42.627 37.5302C42.527 36.4702 42.467 35.3702 42.467 34.2402C42.467 34.1502 42.467 34.0502 42.477 33.9502C42.477 33.4302 42.497 32.9202 42.527 32.4102C42.537 32.2302 42.547 32.0502 42.557 31.8702C42.607 31.2802 42.677 30.7002 42.767 30.1402C43.267 26.6702 44.377 23.4402 45.977 20.6102C46.377 19.9002 46.807 19.2202 47.277 18.5602C48.817 16.3502 50.707 14.4502 52.817 12.9602C52.967 12.8402 53.127 12.7302 53.277 12.6302C53.467 12.5002 53.657 12.3702 53.847 12.2502C54.597 11.7902 55.367 11.3702 56.157 11.0102C58.467 9.95022 60.977 9.34023 63.617 9.27023C63.627 9.25023 63.637 9.25023 63.647 9.27023V9.25024C63.777 9.24024 63.917 9.24023 64.047 9.24023H64.177C64.507 9.24023 64.867 9.25024 65.197 9.28024C65.637 9.30024 66.057 9.33023 66.487 9.39023C66.717 9.41023 66.947 9.44022 67.167 9.48022C67.347 9.50022 67.527 9.54022 67.707 9.57022C69.207 9.86022 70.647 10.3102 72.027 10.9402C73.087 11.4002 74.117 11.9702 75.087 12.6302C75.137 12.6602 75.187 12.7002 75.237 12.7302C75.857 13.1502 76.447 13.5902 77.017 14.0802C79.167 15.8902 81.007 18.1402 82.457 20.7202V20.7302C82.557 20.8802 82.627 21.0302 82.717 21.1802C82.727 21.1802 82.727 21.2002 82.727 21.2002C84.127 23.8702 85.137 26.8602 85.597 30.0702C85.597 30.0902 85.607 30.1102 85.607 30.1402C85.697 30.7002 85.757 31.2802 85.807 31.8702C85.817 31.9702 85.827 32.0702 85.827 32.1702C85.877 32.7502 85.897 33.3502 85.897 33.9502C85.907 34.0512 85.907 34.1502 85.907 34.2402Z" fill="#F5F5FF" stroke="#2E2E2E" stroke-width="0.5" stroke-miterlimit="10" stroke-linecap="round" stroke-linejoin="round"/>
<path d="M52.879 12.9609C51.35 22.3839 48.05 31.4959 43.203 39.6289C43.15 39.7199 43.091 39.8239 43.026 39.9269C42.99 39.7629 42.967 39.5979 42.949 39.4339C42.843 38.8069 42.76 38.1799 42.695 37.5289C42.589 36.4759 42.53 35.3679 42.53 34.2419C42.53 34.1509 42.53 34.0469 42.542 33.9559C42.542 32.6529 42.637 31.3749 42.831 30.1389C43.451 25.7989 45.033 21.8359 47.335 18.5609C48.883 16.3519 50.766 14.4469 52.879 12.9609Z" fill="#2E2E2E"/>
<path d="M85.97 34.2413C85.97 34.5943 85.97 34.9353 85.946 35.2583C85.911 36.2623 85.828 37.2673 85.698 38.2473L85.562 39.6533L85.497 40.4143C85.314 40.1223 85.155 39.8603 85.019 39.6293C80.137 31.4303 76.807 22.2383 75.302 12.7363C75.916 13.1503 76.512 13.5943 77.085 14.0813C79.364 15.9983 81.295 18.4093 82.776 21.1853C82.788 21.1853 82.788 21.1973 82.788 21.1973C84.193 23.8693 85.197 26.8643 85.663 30.0723C85.663 30.0963 85.675 30.1153 85.675 30.1393C85.852 31.3753 85.958 32.6533 85.958 33.9563C85.97 34.0463 85.97 34.1503 85.97 34.2413Z" fill="#2E2E2E"/>
<path d="M85.891 32.1712C85.291 32.7612 84.581 33.2112 83.741 33.4112C81.381 33.9912 78.931 32.3412 77.791 30.1912C76.641 28.0512 77.001 25.1012 76.881 22.6712C76.361 26.5712 73.741 29.8212 70.451 31.9912C72.951 29.4312 73.781 25.1512 73.211 21.6212C73.043 22.4042 72.724 23.2242 72.308 24.0482C69.759 29.1002 64.458 32.1712 58.8 32.1432C56.002 32.1292 53.271 32.1162 52.491 32.1122C55.581 30.5422 57.331 27.2522 58.891 24.1522C55.385 28.2392 50.758 31.3452 45.66 33.0642C44.6 33.4212 43.398 33.2152 42.605 32.4262L42.591 32.4122C42.588 32.4042 42.585 32.3972 42.582 32.3892C42.631 31.6212 42.714 30.8652 42.831 30.1422C43.331 26.6722 44.441 23.4422 46.041 20.6122C46.441 19.9022 46.871 19.2222 47.341 18.5622C48.881 16.3522 50.771 14.4522 52.881 12.9622C53.031 12.8422 53.191 12.7322 53.341 12.6322C53.531 12.5022 53.721 12.3722 53.911 12.2522C54.661 11.7922 55.431 11.3722 56.221 11.0122C58.531 9.95218 61.041 9.34219 63.681 9.27219C63.691 9.25219 63.701 9.25219 63.711 9.27219V9.25217C63.841 9.24217 63.981 9.24219 64.111 9.24219H64.241C64.571 9.24219 64.931 9.25217 65.261 9.28217C65.701 9.30217 66.121 9.33218 66.551 9.39218C66.781 9.41218 67.011 9.44218 67.231 9.48218C67.411 9.50218 67.591 9.54217 67.771 9.57217C69.271 9.86217 70.711 10.3122 72.091 10.9422C73.151 11.4022 74.181 11.9722 75.151 12.6322C75.201 12.6622 75.251 12.7022 75.301 12.7322C75.921 13.1522 76.511 13.5922 77.081 14.0822C79.231 15.8922 81.071 18.1422 82.521 20.7222V20.7322C82.621 20.8822 82.691 21.0322 82.781 21.1822C82.791 21.1822 82.791 21.2022 82.791 21.2022C84.191 23.8722 85.201 26.8622 85.661 30.0722C85.661 30.0922 85.671 30.1122 85.671 30.1422C85.776 30.7932 85.84 31.4722 85.895 32.1622C85.893 32.1642 85.892 32.1672 85.891 32.1712Z" fill="#2E2E2E"/>
<path d="M79.7271 26.9248C83.1211 31.3088 85.048 36.8098 85.132 42.3538C85.216 47.8978 83.4561 53.4538 80.1961 57.9388C84.4021 53.9508 87.1221 49.4758 87.7181 43.7108C88.3141 37.9458 86.7811 31.9848 83.4801 27.2218C83.0561 26.6098 82.5601 25.9848 81.8541 25.7458C81.1471 25.5068 79.8471 26.1898 79.7271 26.9248Z" fill="#2E2E2E"/>
<path d="M68.5698 36.861C69.2518 35.946 70.2358 35.407 71.2128 35.031C72.2038 34.67 73.2348 34.498 74.2598 34.475C75.2858 34.453 76.3108 34.587 77.3048 34.879C78.2928 35.187 79.2738 35.622 80.0998 36.402C79.0288 36.701 78.0748 36.834 77.1208 36.947C76.1718 37.048 75.2438 37.1 74.3198 37.116C73.3948 37.134 72.4768 37.116 71.5428 37.075C70.5988 37.023 69.6728 36.964 68.5698 36.861Z" fill="#2E2E2E"/>
<path d="M59.8029 36.861C59.1209 35.946 58.1369 35.407 57.1599 35.031C56.1689 34.67 55.1379 34.498 54.1129 34.475C53.0869 34.453 52.0619 34.587 51.0679 34.879C50.0799 35.187 49.0989 35.622 48.2729 36.402C49.3439 36.701 50.298 36.834 51.252 36.947C52.201 37.048 53.129 37.1 54.054 37.116C54.979 37.134 55.8969 37.116 56.8309 37.075C57.7749 37.023 58.6999 36.964 59.8029 36.861Z" fill="#2E2E2E"/>
<path d="M68.2399 45.031C68.7739 44.245 69.2999 43.446 70.0049 42.724C70.6859 41.999 71.5419 41.392 72.5339 41.032C73.5209 40.66 74.6579 40.63 75.6749 40.93C76.7099 41.199 77.5949 41.803 78.3469 42.495L78.2899 42.449C78.7119 42.779 79.1429 43.097 79.5569 43.439L79.2669 43.347C79.2479 43.375 79.4079 43.358 79.5299 43.314C79.6619 43.271 79.8019 43.211 79.9409 43.145C80.2169 43.01 80.4999 42.846 80.7479 42.67L80.7589 42.662C80.8579 42.592 80.9939 42.615 81.0649 42.713C81.1229 42.794 81.1169 42.901 81.0589 42.975C80.8399 43.255 80.6089 43.497 80.3509 43.736C80.2209 43.854 80.0849 43.969 79.9279 44.077C79.7609 44.18 79.6159 44.303 79.2689 44.349H79.2679C79.1859 44.356 79.1079 44.335 79.0419 44.296L78.9769 44.257C78.5169 43.98 78.0749 43.678 77.6239 43.389L77.5939 43.366L77.5669 43.342C76.9099 42.765 76.1469 42.326 75.3449 42.084C74.5399 41.826 73.6909 41.86 72.8759 42.082C72.0549 42.309 71.2989 42.794 70.5969 43.362C69.9059 43.932 69.2679 44.648 68.5749 45.31C68.4889 45.395 68.3499 45.393 68.2649 45.307C68.1909 45.232 68.1839 45.115 68.2399 45.031Z" fill="#2E2E2E"/>
<path d="M72.0449 43.1834C72.1179 42.1704 72.9979 41.4084 74.0109 41.4814C75.0239 41.5544 75.7859 42.4344 75.7129 43.4474C75.6399 44.4604 74.7599 45.2224 73.7469 45.1494C72.7339 45.0764 71.9719 44.1964 72.0449 43.1834Z" fill="#2E2E2E"/>
<path d="M77.45 44.8851C78.126 44.7341 78.767 44.4271 79.308 43.9941" stroke="#2E2E2E" stroke-width="0.5" stroke-miterlimit="10" stroke-linecap="round" stroke-linejoin="round"/>
<path d="M68.4319 42.8708C69.2909 41.3588 70.7849 40.2218 72.4719 39.7988" stroke="#2E2E2E" stroke-width="0.5" stroke-miterlimit="10" stroke-linecap="round" stroke-linejoin="round"/>
<path d="M59.7989 45.3106C59.1059 44.6476 58.4689 43.9316 57.7769 43.3626C57.0739 42.7956 56.3179 42.3106 55.4979 42.0826C54.6829 41.8606 53.8339 41.8266 53.0289 42.0846C52.2269 42.3266 51.4629 42.7656 50.8069 43.3426L50.7809 43.3656L50.7489 43.3896C50.2979 43.6786 49.8549 43.9796 49.3959 44.2576L49.3309 44.2966C49.2609 44.3396 49.1819 44.3556 49.1049 44.3496H49.1039C48.7579 44.3036 48.6119 44.1806 48.4449 44.0776C48.2879 43.9686 48.1519 43.8536 48.0219 43.7366C47.7639 43.4976 47.5329 43.2566 47.3139 42.9756C47.2389 42.8806 47.2559 42.7426 47.3519 42.6676C47.4299 42.6066 47.5369 42.6066 47.6139 42.6616L47.6249 42.6696C47.8719 42.8456 48.1549 43.0096 48.4319 43.1446C48.5709 43.2116 48.7109 43.2716 48.8429 43.3136C48.9649 43.3576 49.1239 43.3746 49.1059 43.3466L48.8159 43.4386C49.2299 43.0966 49.6609 42.7796 50.0829 42.4486L50.0259 42.4946C50.7779 41.8026 51.6629 41.1986 52.6979 40.9296C53.7149 40.6306 54.8509 40.6596 55.8389 41.0316C56.8309 41.3906 57.6869 41.9976 58.3679 42.7236C59.0729 43.4456 59.5989 44.2456 60.1329 45.0306C60.2009 45.1306 60.1749 45.2666 60.0749 45.3346C59.9889 45.3936 59.8719 45.3796 59.7989 45.3106Z" fill="#2E2E2E"/>
<path d="M56.3288 43.1834C56.2558 42.1704 55.3758 41.4084 54.3628 41.4814C53.3498 41.5544 52.5878 42.4344 52.6608 43.4474C52.7338 44.4604 53.6138 45.2224 54.6268 45.1494C55.6398 45.0764 56.4018 44.1964 56.3288 43.1834Z" fill="#2E2E2E"/>
<path d="M50.9229 44.8851C50.2469 44.7341 49.6059 44.4271 49.0649 43.9941" stroke="#2E2E2E" stroke-width="0.5" stroke-miterlimit="10" stroke-linecap="round" stroke-linejoin="round"/>
<path d="M59.9419 42.8708C59.0829 41.3588 57.5889 40.2218 55.9019 39.7988" stroke="#2E2E2E" stroke-width="0.5" stroke-miterlimit="10" stroke-linecap="round" stroke-linejoin="round"/>
<path d="M64.3189 61.3988C65.2169 61.3568 66.1129 61.2498 67.0189 61.1318C67.2339 61.1038 70.1019 60.7718 70.0769 60.5918L69.9929 59.9868C69.3139 60.0298 68.6489 59.6018 68.1529 59.2208L67.9319 59.0428C67.3999 58.6128 66.8499 58.1678 66.1619 57.9488C65.4899 57.7438 64.5959 57.8488 64.0879 58.3998C63.5789 57.8488 62.6859 57.7438 62.0099 57.9498C61.3259 58.1678 60.7769 58.6128 60.2439 59.0428L60.0259 59.2188C59.5289 59.5988 58.8649 60.0178 58.1829 59.9868L58.0989 60.5918C59.2549 61.0288 60.7259 61.1658 61.9479 61.3208C62.7479 61.4218 63.5339 61.4358 64.3189 61.3988Z" fill="#2E2E2E"/>
<path d="M69.0979 60.518C69.7569 60.39 70.4059 60.189 71.0319 59.918" stroke="#2E2E2E" stroke-width="0.5778" stroke-miterlimit="10" stroke-linecap="round" stroke-linejoin="round"/>
<path d="M59.2748 60.518C58.6158 60.39 57.9668 60.189 57.3408 59.918" stroke="#2E2E2E" stroke-width="0.5778" stroke-miterlimit="10" stroke-linecap="round" stroke-linejoin="round"/>
<path d="M60.8179 63.0664C62.9879 63.5794 65.2659 63.6354 67.4579 63.2294" stroke="#2E2E2E" stroke-width="0.5" stroke-miterlimit="10" stroke-linecap="round" stroke-linejoin="round"/>
<path d="M61.8389 53.2617C63.0919 54.4127 65.1789 54.5107 66.5349 53.4827" stroke="#2E2E2E" stroke-width="0.6139" stroke-miterlimit="10" stroke-linecap="round" stroke-linejoin="round"/>
<path d="M64.187 42.8242V50.4102" stroke="#2E2E2E" stroke-width="0.5" stroke-miterlimit="10" stroke-linecap="round" stroke-linejoin="round"/>
<path d="M19.538 125.076C27.659 128.74 35.074 129.87 36.099 127.599C37.124 125.328 31.371 120.516 23.25 116.851C15.129 113.186 7.71398 112.057 6.68998 114.328C5.66398 116.6 11.417 121.412 19.538 125.076Z" fill="#2E2E2E"/>
<path d="M0.25 151.528C0.28 151.428 0.320006 151.338 0.350006 151.238L11.17 120.328L13.53 113.588L18.29 99.9884C19.8 95.6584 23.01 92.4984 26.68 91.2084C27.87 90.7884 29.11 90.5684 30.35 90.5684C31.49 90.5684 32.63 90.7584 33.75 91.1484C40.13 93.3884 42.99 101.388 39.98 108.578L33.78 123.338L31.53 128.688L29.7 133.048L21.93 151.528" fill="#F5F5FF"/>
<path d="M0.25 151.528C0.28 151.428 0.320006 151.338 0.350006 151.238L11.17 120.328L13.53 113.588L18.29 99.9884C19.8 95.6584 23.01 92.4984 26.68 91.2084C27.87 90.7884 29.11 90.5684 30.35 90.5684C31.49 90.5684 32.63 90.7584 33.75 91.1484C40.13 93.3884 42.99 101.388 39.98 108.578L33.78 123.338L31.53 128.688L29.7 133.048L21.93 151.528" stroke="#2E2E2E" stroke-width="0.5" stroke-miterlimit="10" stroke-linecap="round" stroke-linejoin="round"/>
<path d="M6.86401 114.054C8.36501 112.159 15.479 113.352 23.245 116.848C31.368 120.516 37.128 125.328 36.094 127.605C36.069 127.654 36.045 127.691 36.008 127.74L36.094 127.777L45.066 106.743C48.586 98.4853 44.783 89.0693 36.783 86.2763C35.269 85.7473 33.731 85.4883 32.192 85.4883C26.715 85.4883 21.46 88.7373 18.764 94.0053L6.86401 114.054Z" fill="#2E2E2E"/>
<path d="M107.279 125.076C99.1578 128.74 91.7428 129.87 90.7188 127.599C89.6938 125.328 95.4468 120.516 103.568 116.851C111.689 113.186 119.104 112.057 120.129 114.328C121.154 116.6 115.401 121.412 107.279 125.076Z" fill="#2E2E2E"/>
<path d="M104.89 151.528L96.6499 131.938L95.2899 128.688L93.0399 123.338L91.5499 119.798L89.0199 113.758L86.8399 108.578C83.8199 101.388 86.6899 93.3884 93.0699 91.1484C94.1799 90.7584 95.3299 90.5684 96.4599 90.5684C97.4699 90.5684 98.47 90.7184 99.45 90.9984C103.4 92.1084 106.92 95.3984 108.53 99.9884L113.29 113.588L115.65 120.328L126.47 151.238C126.5 151.338 126.54 151.428 126.57 151.528" fill="#F5F5FF"/>
<path d="M104.89 151.528L96.6499 131.938L95.2899 128.688L93.0399 123.338L91.5499 119.798L89.0199 113.758L86.8399 108.578C83.8199 101.388 86.6899 93.3884 93.0699 91.1484C94.1799 90.7584 95.3299 90.5684 96.4599 90.5684C97.4699 90.5684 98.47 90.7184 99.45 90.9984C103.4 92.1084 106.92 95.3984 108.53 99.9884L113.29 113.588L115.65 120.328L126.47 151.238C126.5 151.338 126.54 151.428 126.57 151.528" stroke="#2E2E2E" stroke-width="0.5" stroke-miterlimit="10" stroke-linecap="round" stroke-linejoin="round"/>
<path d="M119.953 114.054C118.452 112.159 111.338 113.352 103.572 116.848C95.4489 120.516 89.6889 125.328 90.7229 127.605C90.7479 127.654 90.7719 127.691 90.8089 127.74L90.7229 127.777L81.7509 106.743C78.2309 98.4853 82.0339 89.0693 90.0339 86.2763C91.5479 85.7473 93.0859 85.4883 94.6249 85.4883C100.102 85.4883 105.357 88.7373 108.052 94.0053L119.953 114.054Z" fill="#2E2E2E"/>
<path d="M100.051 103.811L97.4909 116.051C98.0009 117.171 98.4009 118.351 98.6709 119.581C98.9509 120.861 99.1009 122.181 99.1009 123.541C99.1009 125.161 98.8909 126.741 98.4809 128.241C98.1409 129.541 97.6609 130.781 97.0509 131.941C96.0509 133.861 94.7309 135.591 93.1409 137.041L90.1309 151.531H35.9609L32.9509 136.631C31.8609 135.571 30.9009 134.361 30.1009 133.051C29.1509 131.491 28.4209 129.781 27.9709 127.961C27.6209 126.551 27.4309 125.071 27.4309 123.541C27.4309 121.991 27.6309 120.481 27.9909 119.041C28.2209 118.131 28.5109 117.251 28.8609 116.401L26.3209 103.811C25.2309 99.1708 25.4409 94.6308 27.0809 91.2108C28.4309 88.3708 30.7709 86.3108 34.1709 85.5808C35.0309 85.4008 35.9709 85.3008 36.9809 85.3008H90.7209C91.7209 85.3008 92.6409 85.4008 93.4809 85.5808C96.7009 86.2808 98.7509 88.2708 99.8509 91.0008C101.261 94.4518 101.161 99.0818 100.051 103.811Z" fill="#2E2E2E"/>
<path d="M100.048 103.807C99.672 105.857 99.326 107.914 98.92 109.958C98.526 112.005 98.138 114.052 97.714 116.093L97.699 115.956C98.499 117.714 99.034 119.6 99.242 121.525C99.444 123.451 99.331 125.403 98.935 127.294C98.543 129.188 97.8 130.997 96.828 132.656C95.852 134.318 94.577 135.784 93.144 137.044C94.517 135.713 95.661 134.17 96.579 132.514C97.497 130.854 98.127 129.052 98.509 127.206C99.252 123.506 98.824 119.589 97.294 116.14C97.274 116.096 97.27 116.047 97.279 116.003C97.706 113.963 98.168 111.931 98.626 109.898C99.068 107.86 99.573 105.836 100.048 103.807Z" fill="white"/>
<path d="M32.9489 136.635C31.6189 135.385 30.4399 133.951 29.5359 132.346C28.6369 130.742 27.9559 129.003 27.5829 127.191C27.2169 125.38 27.1039 123.515 27.2829 121.672C27.4539 119.828 27.9369 118.019 28.6559 116.317L28.6429 116.449C27.8049 112.248 27.045 108.031 26.325 103.807C27.299 107.981 28.2319 112.162 29.0869 116.36C29.0959 116.406 29.0899 116.452 29.0739 116.493C27.7079 119.83 27.3149 123.562 28.0079 127.107C28.3569 128.877 28.9389 130.606 29.7839 132.212C30.6269 133.815 31.6809 135.317 32.9489 136.635Z" fill="white"/>
<path d="M76.7749 80.8184H49.7649V89.0384H76.7749V80.8184Z" fill="#2E2E2E"/>
<path d="M77.2049 85.0527C77.2899 86.0737 77.3339 87.1167 77.3339 88.1757C77.3339 100.811 71.0899 111.053 63.3879 111.053C55.6859 111.053 49.4419 100.811 49.4419 88.1757C49.4419 87.2727 49.4739 86.3827 49.5359 85.5077" stroke="white" stroke-width="0.5" stroke-miterlimit="10" stroke-linecap="round" stroke-linejoin="round"/>
</svg>
