<svg width="148" height="176" viewBox="0 0 148 176" fill="none" xmlns="http://www.w3.org/2000/svg">
<rect width="147.872" height="175.513" fill="white"/>
<path d="M132.596 89.2117C141.032 56.8147 121.609 23.7125 89.2115 15.276C56.8145 6.83942 23.7123 26.2632 15.2757 58.6603C6.83918 91.0573 26.263 124.159 58.66 132.596C91.0571 141.033 124.159 121.609 132.596 89.2117Z" fill="#C91054"/>
<path d="M110.967 76.9172C113.267 74.9702 113.067 71.6722 111.872 68.9052C110.678 66.1392 107.565 64.3352 104.571 64.6742C106.973 62.9882 106.649 59.5362 105.287 56.9372C103.925 54.3372 100.517 53.0262 97.7632 54.0412C100.324 51.9992 100.409 48.6242 98.7472 45.8012C98.0522 44.6212 96.9712 43.7132 95.7302 43.1412C95.0282 40.4302 93.4652 37.9402 91.1982 36.2882C89.3772 34.9612 87.1802 34.2382 84.9382 34.0852C82.3292 32.3212 79.0032 31.2932 76.2232 32.6542C68.3382 29.8222 58.8572 32.1652 53.1992 38.3442C52.2502 39.3802 51.3772 40.5712 51.1462 41.9572C50.9152 43.3432 51.5072 44.9492 52.8012 45.4962C49.2842 43.7842 46.1682 45.1222 43.4742 47.9582C40.7792 50.7932 40.1852 55.4122 42.0742 58.8372C39.0542 58.9372 36.6192 62.4862 35.9062 65.4232C35.1922 68.3602 36.6432 71.6862 39.2812 73.1612C35.5572 73.5422 34.1782 78.6622 35.3012 82.2342C36.0362 84.5722 38.3162 86.1782 40.7202 86.5032C38.6552 87.5282 36.8152 89.4952 35.9722 91.4292C34.6372 94.4922 35.7152 98.4182 38.4282 100.37C41.1402 102.321 45.2062 102.096 47.6852 99.8562C46.8382 102.201 48.5922 105.385 50.8112 106.521C53.0312 107.657 55.7552 107.411 58.0582 106.454C60.3612 105.497 62.3312 103.902 64.2652 102.329C63.4652 102.806 64.6552 104.013 65.0112 104.874C65.3672 105.734 66.1432 106.349 66.9512 106.813C71.4412 109.393 77.8222 107.87 80.6632 103.541C80.5172 106.633 82.8952 109.531 85.9892 109.62C89.0832 109.709 91.9672 106.934 91.9982 103.839C93.9902 106.837 97.6522 107.607 100.493 105.397C103.333 103.187 103.743 98.4822 101.327 95.8142C103.946 98.1512 108.525 99.5692 110.688 96.8062C112.852 94.0422 112.149 89.5022 109.252 87.5212C112.483 88.2102 116.229 86.9442 116.647 83.6672C117.066 80.3872 114.268 77.0632 110.967 76.9172Z" fill="#2E2E2E"/>
<path d="M85.1963 114.451C85.4133 121.067 80.2253 126.554 73.7533 126.554C67.4173 126.554 62.3103 121.294 62.3103 114.84C62.3103 114.714 62.3103 114.578 62.3193 114.451L63.5933 96.979L63.7563 94.728L64.5513 83.873H82.9543L83.7773 95.135L83.9583 97.594L85.1963 114.451Z" fill="#F5F5FF" stroke="#2E2E2E" stroke-width="0.5" stroke-miterlimit="10" stroke-linecap="round" stroke-linejoin="round"/>
<path d="M84.6494 105.775C78.8494 106.485 72.3094 103.695 67.8794 98.035C66.0794 95.745 64.8294 93.225 64.1094 90.675L64.6294 83.625H83.0294L83.8494 94.885L84.0394 97.345L84.6494 105.775Z" fill="#2E2E2E"/>
<path d="M90.7822 67.3609C88.4702 71.0739 88.6942 75.4719 91.2812 77.1849C93.8682 78.8979 97.8402 77.2759 100.152 73.5629C102.464 69.8499 102.24 65.4519 99.6532 63.7399C97.0652 62.0259 93.0942 63.6479 90.7822 67.3609Z" fill="#F5F5FF" stroke="#2E2E2E" stroke-width="0.5" stroke-miterlimit="10" stroke-linecap="round" stroke-linejoin="round"/>
<path d="M97.7063 65.5215C98.8273 65.9595 99.6783 67.0235 99.8603 68.2125C100.042 69.4015 99.5463 70.6715 98.6073 71.4235" stroke="#2E2E2E" stroke-width="0.5" stroke-miterlimit="10" stroke-linecap="round" stroke-linejoin="round"/>
<path d="M56.5753 67.3609C58.8873 71.0739 58.6633 75.4719 56.0763 77.1849C53.4893 78.8979 49.5173 77.2759 47.2053 73.5629C44.8933 69.8499 45.1173 65.4519 47.7043 63.7399C50.2913 62.0259 54.2633 63.6479 56.5753 67.3609Z" fill="#F5F5FF" stroke="#2E2E2E" stroke-width="0.5" stroke-miterlimit="10" stroke-linecap="round" stroke-linejoin="round"/>
<path d="M49.6512 65.5215C48.5302 65.9595 47.6792 67.0235 47.4972 68.2125C47.3152 69.4015 47.8112 70.6715 48.7502 71.4235" stroke="#2E2E2E" stroke-width="0.5" stroke-miterlimit="10" stroke-linecap="round" stroke-linejoin="round"/>
<path d="M96.7653 60.416C96.7653 60.758 96.7653 61.088 96.7403 61.4C96.7023 62.372 96.6143 63.344 96.4753 64.293L96.3303 65.654L96.2603 66.391L96.1533 67.457C96.0903 68.105 96.0463 68.742 96.0023 69.378C95.9773 69.785 95.9513 70.185 95.9263 70.586C95.8253 72.2 95.7303 73.791 95.4913 75.382C95.4913 75.406 95.4783 75.435 95.4783 75.459C95.4273 75.759 95.3773 76.066 95.3143 76.366C95.2513 76.696 95.1883 77.02 95.0933 77.338C94.9793 77.815 94.8403 78.298 94.6763 78.787C94.6253 78.964 94.5623 79.129 94.4933 79.306C94.3673 79.66 94.2153 80.013 94.0643 80.378C93.6413 81.309 93.1423 82.222 92.5683 83.13C90.1763 86.913 86.5163 90.371 82.8433 92.669C82.8303 92.693 82.8053 92.704 82.7923 92.704C82.3443 92.993 81.8963 93.258 81.4543 93.499C76.9803 95.974 71.6853 96.109 67.0473 93.976C66.0883 93.534 65.1603 93.033 64.2643 92.438C64.2513 92.438 64.2393 92.438 64.2263 92.415C60.6733 90.117 57.6253 86.788 55.3283 83.129C55.1643 82.876 55.0123 82.622 54.8553 82.357C54.7793 82.222 54.7043 82.08 54.6283 81.945C54.5023 81.715 54.3763 81.474 54.2433 81.238C53.8773 80.608 53.5553 79.948 53.2653 79.305C53.1893 79.128 53.1013 78.951 53.0313 78.763C51.9523 76.188 51.5673 73.313 51.3153 70.485C51.2713 70.043 51.2333 69.595 51.1953 69.153C51.1513 68.658 51.1063 68.163 51.0693 67.674L50.9433 66.348C50.9113 66.201 50.8863 66.059 50.8613 65.918C50.8233 65.759 50.7983 65.6 50.7793 65.441C50.6653 64.834 50.5773 64.227 50.5083 63.597C50.3953 62.578 50.3313 61.505 50.3313 60.415C50.3313 60.327 50.3313 60.226 50.3443 60.138C50.3443 59.454 50.3753 58.783 50.4323 58.117C50.4823 57.551 50.5583 56.992 50.6533 56.444C51.1833 53.086 52.3693 49.963 54.0863 47.223C54.5153 46.534 54.9753 45.874 55.4683 45.237C60.3713 38.895 68.7513 35.205 77.3183 36.585C84.1713 37.689 89.7343 41.911 93.0793 47.34C93.1803 47.481 93.2623 47.629 93.3633 47.788C94.8653 50.375 95.9383 53.273 96.4363 56.378C96.4363 56.401 96.4493 56.419 96.4493 56.443C96.5373 56.991 96.6073 57.551 96.6573 58.116C96.7203 58.782 96.7523 59.453 96.7523 60.137C96.7653 60.228 96.7653 60.328 96.7653 60.416Z" fill="#F5F5FF" stroke="#2E2E2E" stroke-width="0.5086" stroke-miterlimit="10" stroke-linecap="round" stroke-linejoin="round"/>
<path d="M76.4351 33.2666C78.8931 35.5206 79.4961 39.3986 77.8281 42.2356C76.1601 45.0716 72.3761 46.6066 69.0751 45.7856C70.0981 47.3186 69.2941 49.6696 68.1931 51.1526C67.0911 52.6356 65.0101 53.3896 63.1531 52.9786C64.7251 57.8746 61.5181 63.6136 56.8651 66.1726C58.1231 68.5996 57.4501 72.4716 56.1231 74.8656C54.7961 77.2596 52.2181 78.9846 49.4051 79.3606C51.2651 81.4536 51.9241 84.7966 50.9411 87.3746C49.9591 89.9526 47.4571 91.9476 44.6221 92.4156C42.3081 92.7966 38.7761 92.2036 37.7681 90.1826C36.7601 88.1616 37.4061 85.5146 39.2461 84.1236C38.1811 81.9536 37.5231 79.9226 37.3891 77.5296C37.2221 74.5626 37.8381 71.4956 39.5411 69.0066C41.2441 66.5176 44.1171 64.6826 47.2311 64.5306C44.5451 60.7186 43.8821 56.1856 45.8391 51.9896C47.7971 47.7936 52.1151 44.6806 56.8851 44.0286C56.8371 41.4036 57.8521 38.8736 59.9841 37.2096C62.1151 35.5466 65.0601 34.8736 67.7511 35.4356C68.4431 33.8616 70.9171 32.9346 72.6841 32.6596C74.4511 32.3856 76.3461 33.0346 77.5261 34.3186" fill="#2E2E2E"/>
<path d="M78.497 34.4429C76.694 37.5979 76.796 41.7499 78.754 44.8119C80.712 47.8739 84.437 49.7099 88.058 49.3969C86.373 51.2739 86.664 54.3819 88.233 56.3569C89.802 58.3329 92.85 58.9449 95.06 57.7279C93.93 58.6769 92.775 60.1099 92.669 61.5819C92.562 63.0539 93.406 64.6359 94.813 65.0829C96.22 65.5299 97.987 64.4709 97.999 62.9949C98.031 58.8419 100.576 54.9379 99.177 51.0269C97.779 47.1159 94.633 43.8669 90.77 42.3429C89.393 36.9969 84.017 34.3689 78.497 34.4429Z" fill="#2E2E2E"/>
<path d="M62.6874 77.6888C67.1902 77.6888 70.8404 74.0386 70.8404 69.5358C70.8404 65.033 67.1902 61.3828 62.6874 61.3828C58.1846 61.3828 54.5344 65.033 54.5344 69.5358C54.5344 74.0386 58.1846 77.6888 62.6874 77.6888Z" stroke="#2E2E2E" stroke-width="0.5" stroke-miterlimit="10" stroke-linecap="round" stroke-linejoin="round"/>
<path d="M85.1325 77.6888C89.6353 77.6888 93.2855 74.0386 93.2855 69.5358C93.2855 65.033 89.6353 61.3828 85.1325 61.3828C80.6297 61.3828 76.9795 65.033 76.9795 69.5358C76.9795 74.0386 80.6297 77.6888 85.1325 77.6888Z" stroke="#2E2E2E" stroke-width="0.5" stroke-miterlimit="10" stroke-linecap="round" stroke-linejoin="round"/>
<path d="M70.8442 68.575C71.7452 68.05 72.7922 67.75 73.9092 67.75C75.0422 67.75 76.1032 68.059 77.0122 68.597" stroke="#2E2E2E" stroke-width="0.5" stroke-miterlimit="10" stroke-linecap="round" stroke-linejoin="round"/>
<path d="M54.5343 69.5365L49.9233 63.3965" stroke="#2E2E2E" stroke-width="0.5" stroke-miterlimit="10" stroke-linecap="round" stroke-linejoin="round"/>
<path d="M93.1343 69.5365L97.7463 63.3965" stroke="#2E2E2E" stroke-width="0.5" stroke-miterlimit="10" stroke-linecap="round" stroke-linejoin="round"/>
<path d="M77.7524 61.2645C78.2244 60.1165 79.1614 59.2715 80.2004 58.6875C81.2514 58.1095 82.4424 57.7945 83.6474 57.7545C84.8524 57.7135 86.0585 57.9545 87.1425 58.4585C88.2165 58.9695 89.2045 59.7425 89.7675 60.8495L86.5555 60.7625C85.5825 60.7445 84.6575 60.7485 83.7415 60.7755C82.8255 60.8045 81.9044 60.8565 80.9374 60.9385C79.9634 61.0165 78.9714 61.1275 77.7524 61.2645Z" fill="#2E2E2E"/>
<path d="M69.9173 61.2647C68.6973 61.1277 67.7064 61.0167 66.7314 60.9387C65.7654 60.8567 64.8443 60.8037 63.9283 60.7757C63.0113 60.7497 62.0873 60.7447 61.1143 60.7627L57.9023 60.8497C58.4653 59.7427 59.4533 58.9697 60.5273 58.4587C61.6113 57.9537 62.8174 57.7127 64.0224 57.7547C65.2274 57.7947 66.4183 58.1097 67.4693 58.6877C68.5083 59.2717 69.4453 60.1167 69.9173 61.2647Z" fill="#2E2E2E"/>
<path d="M78.3134 69.3624C78.5304 68.8804 78.7723 68.4134 79.0013 67.9384L79.0204 67.9094C79.5914 67.0514 80.3073 66.2224 81.2643 65.6804C82.2033 65.1224 83.3334 64.8404 84.4294 64.9084C85.5184 64.9624 86.5914 65.2894 87.5164 65.8524C87.9784 66.1304 88.3994 66.4634 88.7884 66.8234C89.1754 67.1764 89.5234 67.6064 89.6664 68.1284L89.6683 68.1374C89.7033 68.2654 89.6283 68.3964 89.5003 68.4314C89.4453 68.4464 89.3893 68.4404 89.3413 68.4194C88.8263 68.1934 88.4914 67.8954 88.1204 67.6024C87.7524 67.3154 87.3594 67.0664 86.9514 66.8574C86.1444 66.4334 85.2563 66.1884 84.3583 66.1174C83.4653 66.0454 82.5734 66.2054 81.7624 66.5994C80.9564 67.0014 80.2284 67.6134 79.6044 68.3414L79.6234 68.3134C79.3104 68.7374 79.0114 69.1704 78.6864 69.5884C78.6124 69.6844 78.4744 69.7014 78.3784 69.6274C78.2974 69.5624 78.2724 69.4524 78.3134 69.3624Z" fill="#2E2E2E"/>
<path d="M81.9985 67.5096C82.0715 66.4966 82.9515 65.7346 83.9645 65.8076C84.9775 65.8806 85.7395 66.7606 85.6665 67.7736C85.5935 68.7866 84.7135 69.5486 83.7005 69.4756C82.6875 69.4026 81.9255 68.5226 81.9985 67.5096Z" fill="#2E2E2E"/>
<path d="M87.5435 69.1879C88.2195 69.0369 88.8605 68.7299 89.4015 68.2969" stroke="#2E2E2E" stroke-width="0.5" stroke-miterlimit="10" stroke-linecap="round" stroke-linejoin="round"/>
<path d="M68.9824 69.5874C68.6584 69.1694 68.3584 68.7374 68.0454 68.3124L68.0644 68.3404C67.4404 67.6134 66.7124 67.0014 65.9064 66.5984C65.0954 66.2044 64.2044 66.0434 63.3104 66.1164C62.4124 66.1884 61.5244 66.4324 60.7174 66.8564C60.3104 67.0654 59.9174 67.3144 59.5484 67.6014C59.1764 67.8944 58.8414 68.1934 58.3274 68.4184C58.2064 68.4714 58.0654 68.4164 58.0124 68.2954C57.9894 68.2434 57.9864 68.1874 58.0004 68.1364L58.0034 68.1274C58.1464 67.6054 58.4934 67.1754 58.8814 66.8224C59.2704 66.4634 59.6914 66.1304 60.1534 65.8514C61.0774 65.2884 62.1514 64.9624 63.2404 64.9084C64.3364 64.8404 65.4664 65.1224 66.4054 65.6804C67.3624 66.2224 68.0784 67.0514 68.6494 67.9094L68.6684 67.9384C68.8974 68.4134 69.1394 68.8804 69.3564 69.3624C69.4064 69.4734 69.3574 69.6024 69.2464 69.6524C69.1514 69.6954 69.0434 69.6654 68.9824 69.5874Z" fill="#2E2E2E"/>
<path d="M65.6714 67.5096C65.5984 66.4966 64.7184 65.7346 63.7054 65.8076C62.6924 65.8806 61.9304 66.7606 62.0034 67.7736C62.0764 68.7866 62.9564 69.5486 63.9694 69.4756C64.9824 69.4026 65.7444 68.5226 65.6714 67.5096Z" fill="#2E2E2E"/>
<path d="M60.1263 69.1879C59.4503 69.0369 58.8093 68.7299 58.2683 68.2969" stroke="#2E2E2E" stroke-width="0.5" stroke-miterlimit="10" stroke-linecap="round" stroke-linejoin="round"/>
<path d="M70.6484 77.5913C71.4134 76.6073 72.6124 76.0043 73.8274 75.9943C75.0424 75.9843 76.2474 76.5663 77.0214 77.5383" stroke="#2E2E2E" stroke-width="0.4638" stroke-miterlimit="10" stroke-linecap="round" stroke-linejoin="round"/>
<path d="M74.0282 84.5546C74.8472 84.5496 75.6662 84.4976 76.4792 84.3986C76.7282 84.3686 79.1622 84.0336 79.1452 83.8806C79.1452 83.8806 77.8922 82.9176 77.4572 82.5476L77.2642 82.3746C76.7982 81.9576 76.3162 81.5256 75.7092 81.3086C75.1162 81.1046 74.3222 81.1946 73.8642 81.7146C73.4192 81.1816 72.6292 81.0706 72.0272 81.2596C71.4182 81.4596 70.9252 81.8786 70.4472 82.2826L70.2522 82.4476C69.8062 82.8046 68.5262 83.7366 68.5262 83.7366C68.5082 83.9356 70.6242 84.3016 70.8672 84.3366C71.7592 84.4656 72.6592 84.5376 73.5612 84.5516C73.7152 84.5546 73.8712 84.5556 74.0282 84.5546Z" fill="#2E2E2E"/>
<path d="M70.8953 86.1445C72.7403 87.2385 75.1673 87.2735 77.0433 86.2325Z" fill="#F5F5FF"/>
<path d="M70.8953 86.1445C72.7403 87.2385 75.1673 87.2735 77.0433 86.2325" stroke="#2E2E2E" stroke-width="0.5086" stroke-miterlimit="10" stroke-linecap="round" stroke-linejoin="round"/>
<path d="M22.9353 169.801C31.0563 173.466 38.4713 174.595 39.4953 172.324C40.5203 170.053 34.7673 165.241 26.6463 161.576C18.5253 157.911 11.1103 156.782 10.0853 159.053C9.06132 161.325 14.8133 166.137 22.9353 169.801Z" fill="#2E2E2E"/>
<path d="M33.8262 175.513L42.0662 155.923L43.4262 152.673L45.6762 147.323L47.1662 143.783L49.6962 137.743L51.8762 132.563C54.8962 125.373 52.0262 117.373 45.6462 115.133C44.5362 114.743 43.3862 114.553 42.2562 114.553C41.2462 114.553 40.2462 114.703 39.2662 114.983C35.3162 116.093 31.7962 119.383 30.1862 123.973L25.4262 137.573L23.0662 144.313L12.2462 175.223C12.2162 175.323 12.1762 175.413 12.1462 175.513" fill="#F5F5FF"/>
<path d="M33.8262 175.513L42.0662 155.923L43.4262 152.673L45.6762 147.323L47.1662 143.783L49.6962 137.743L51.8762 132.563C54.8962 125.373 52.0262 117.373 45.6462 115.133C44.5362 114.743 43.3862 114.553 42.2562 114.553C41.2462 114.553 40.2462 114.703 39.2662 114.983C35.3162 116.093 31.7962 119.383 30.1862 123.973L25.4262 137.573L23.0662 144.313L12.2462 175.223C12.2162 175.323 12.1762 175.413 12.1462 175.513" stroke="#2E2E2E" stroke-width="0.5" stroke-miterlimit="10" stroke-linecap="round" stroke-linejoin="round"/>
<path d="M10.1794 158.799C11.6804 156.904 18.7944 158.097 26.5604 161.593C34.6834 165.261 40.4434 170.073 39.4094 172.35C39.3844 172.399 39.3604 172.436 39.3234 172.485L39.4094 172.522L56.9644 130.728C60.4844 122.47 56.6814 113.054 48.6814 110.261C47.1674 109.732 45.6294 109.473 44.0904 109.473C38.6134 109.473 33.3584 112.722 30.6624 117.99L10.1794 158.799Z" fill="#2E2E2E"/>
<path d="M23.7804 144.315C24.3409 144.315 24.7954 143.861 24.7954 143.3C24.7954 142.74 24.3409 142.285 23.7804 142.285C23.2198 142.285 22.7654 142.74 22.7654 143.3C22.7654 143.861 23.2198 144.315 23.7804 144.315Z" fill="#F5F5FF"/>
<path d="M25.6804 155.234C25.6804 156.029 26.3244 156.673 27.1194 156.673C27.9144 156.673 28.5584 156.029 28.5584 155.234C28.5584 154.439 27.9144 153.795 27.1194 153.795C26.3244 153.795 25.6804 154.439 25.6804 155.234Z" fill="#F5F5FF"/>
<path d="M31.4284 136.401C31.4284 137.074 30.8834 137.619 30.2114 137.619C29.5394 137.619 28.9944 137.074 28.9944 136.401C28.9944 135.729 29.5394 135.184 30.2114 135.184C30.8834 135.184 31.4284 135.729 31.4284 136.401Z" fill="#F5F5FF"/>
<path d="M124.96 169.801C116.839 173.466 109.424 174.595 108.399 172.324C107.374 170.053 113.127 165.241 121.248 161.576C129.369 157.911 136.784 156.782 137.809 159.053C138.834 161.325 133.081 166.137 124.96 169.801Z" fill="#2E2E2E"/>
<path d="M114.069 175.513L105.829 155.923L104.469 152.673L102.219 147.323L100.729 143.783L98.1994 137.743L96.0194 132.563C92.9994 125.373 95.8694 117.373 102.249 115.133C103.359 114.743 104.509 114.553 105.639 114.553C106.649 114.553 107.649 114.703 108.629 114.983C112.579 116.093 116.099 119.383 117.709 123.973L122.469 137.573L124.829 144.313L135.649 175.223C135.679 175.323 135.719 175.413 135.749 175.513" fill="#F5F5FF"/>
<path d="M114.069 175.513L105.829 155.923L104.469 152.673L102.219 147.323L100.729 143.783L98.1994 137.743L96.0194 132.563C92.9994 125.373 95.8694 117.373 102.249 115.133C103.359 114.743 104.509 114.553 105.639 114.553C106.649 114.553 107.649 114.703 108.629 114.983C112.579 116.093 116.099 119.383 117.709 123.973L122.469 137.573L124.829 144.313L135.649 175.223C135.679 175.323 135.719 175.413 135.749 175.513" stroke="#2E2E2E" stroke-width="0.5" stroke-miterlimit="10" stroke-linecap="round" stroke-linejoin="round"/>
<path d="M137.715 158.799C136.214 156.904 129.1 158.097 121.334 161.593C113.211 165.261 107.451 170.073 108.485 172.35C108.51 172.399 108.534 172.436 108.571 172.485L108.485 172.522L90.9304 130.728C87.4104 122.47 91.2134 113.054 99.2134 110.261C100.727 109.732 102.265 109.473 103.804 109.473C109.281 109.473 114.536 112.722 117.232 117.99L137.715 158.799Z" fill="#2E2E2E"/>
<path d="M113.36 120.48C113.36 121.03 112.914 121.476 112.364 121.476C111.814 121.476 111.368 121.03 111.368 120.48C111.368 119.93 111.814 119.484 112.364 119.484C112.914 119.483 113.36 119.929 113.36 120.48Z" fill="#F5F5FF"/>
<path d="M124.115 144.315C124.676 144.315 125.13 143.861 125.13 143.3C125.13 142.74 124.676 142.285 124.115 142.285C123.555 142.285 123.1 142.74 123.1 143.3C123.1 143.861 123.555 144.315 124.115 144.315Z" fill="#F5F5FF"/>
<path d="M116.68 135.975C116.68 136.647 116.135 137.192 115.462 137.192C114.79 137.192 114.245 136.647 114.245 135.975C114.245 135.303 114.79 134.758 115.462 134.758C116.135 134.758 116.68 135.303 116.68 135.975Z" fill="#F5F5FF"/>
<path d="M122.214 155.234C122.214 156.029 121.57 156.673 120.775 156.673C119.98 156.673 119.336 156.029 119.336 155.234C119.336 154.439 119.98 153.795 120.775 153.795C121.57 153.795 122.214 154.439 122.214 155.234Z" fill="#F5F5FF"/>
<path d="M110.482 158.334C110.482 158.884 110.036 159.33 109.486 159.33C108.936 159.33 108.49 158.884 108.49 158.334C108.49 157.784 108.936 157.338 109.486 157.338C110.036 157.338 110.482 157.784 110.482 158.334Z" fill="#F5F5FF"/>
<path d="M110.659 127.793L108.099 140.033C108.609 141.153 109.009 142.333 109.279 143.563C109.559 144.843 109.709 146.163 109.709 147.523C109.709 149.143 109.499 150.723 109.089 152.223C108.749 153.523 108.269 154.763 107.659 155.923C106.659 157.843 105.339 159.573 103.749 161.023L100.739 175.513H46.5693L43.5593 160.613C42.4693 159.553 41.5093 158.343 40.7093 157.033C39.7593 155.473 39.0293 153.763 38.5793 151.943C38.2293 150.533 38.0393 149.053 38.0393 147.523C38.0393 145.973 38.2393 144.463 38.5993 143.023C38.8293 142.113 39.1193 141.233 39.4693 140.383L36.9293 127.793C35.8393 123.153 36.0493 118.613 37.6893 115.193C39.0393 112.353 41.3793 110.293 44.7793 109.563C45.6393 109.383 46.5793 109.283 47.5893 109.283H101.329C102.329 109.283 103.249 109.383 104.089 109.563C107.309 110.263 109.359 112.253 110.459 114.983C111.869 118.433 111.769 123.063 110.659 127.793Z" fill="#2E2E2E"/>
<path d="M110.74 127.789C110.364 129.839 110.017 131.896 109.612 133.94C109.218 135.987 108.83 138.034 108.406 140.075L108.391 139.938C109.191 141.696 109.726 143.582 109.934 145.507C110.136 147.433 110.023 149.385 109.627 151.276C109.235 153.17 108.492 154.979 107.52 156.638C106.545 158.3 105.269 159.766 103.836 161.025C105.209 159.694 106.353 158.152 107.271 156.495C108.189 154.835 108.819 153.033 109.201 151.187C109.944 147.487 109.515 143.57 107.986 140.121C107.966 140.077 107.962 140.028 107.971 139.984C108.398 137.944 108.86 135.912 109.318 133.878C109.761 131.843 110.266 129.819 110.74 127.789Z" fill="white"/>
<path d="M43.6424 160.618C42.3124 159.368 41.1334 157.934 40.2284 156.329C39.3294 154.725 38.6484 152.986 38.2754 151.175C37.9094 149.364 37.7964 147.499 37.9754 145.656C38.1464 143.812 38.6294 142.003 39.3474 140.301L39.3344 140.433C38.4964 136.232 37.7364 132.015 37.0164 127.791C37.9904 131.965 38.9234 136.146 39.7784 140.344C39.7874 140.389 39.7814 140.436 39.7654 140.476C38.3994 143.813 38.0064 147.545 38.6994 151.09C39.0484 152.86 39.6304 154.589 40.4754 156.195C41.3204 157.798 42.3744 159.301 43.6424 160.618Z" fill="white"/>
<path d="M84.6042 108.652L90.0492 109.469C87.6292 115.749 81.4192 120.599 74.6392 120.889C67.3592 121.209 60.2792 116.229 57.7092 109.469L63.0022 108.203" fill="#F5F5FF"/>
<path d="M84.6042 108.652L90.0492 109.469C87.6292 115.749 81.4192 120.599 74.6392 120.889C67.3592 121.209 60.2792 116.229 57.7092 109.469L63.0022 108.203" stroke="#2E2E2E" stroke-width="0.5" stroke-miterlimit="10" stroke-linecap="round" stroke-linejoin="round"/>
<path d="M49.5971 134.867C49.5971 135.54 49.0521 136.085 48.3801 136.085C47.7081 136.085 47.1631 135.54 47.1631 134.867C47.1631 134.195 47.7081 133.65 48.3801 133.65C49.0521 133.65 49.5971 134.195 49.5971 134.867Z" fill="#F5F5FF"/>
<path d="M61.5513 164.754C61.5513 166.038 60.5103 167.078 59.2273 167.078C57.9433 167.078 56.9033 166.037 56.9033 164.754C56.9033 163.471 57.9443 162.43 59.2273 162.43C60.5103 162.429 61.5513 163.47 61.5513 164.754Z" fill="#F5F5FF"/>
<path d="M97.1913 145.162C97.1913 146.018 96.4973 146.712 95.6413 146.712C94.7853 146.712 94.0913 146.018 94.0913 145.162C94.0913 144.306 94.7853 143.613 95.6413 143.613C96.4973 143.612 97.1913 144.306 97.1913 145.162Z" fill="#F5F5FF"/>
<path d="M76.0503 143.834C77.8232 143.834 79.2603 142.397 79.2603 140.624C79.2603 138.851 77.8232 137.414 76.0503 137.414C74.2775 137.414 72.8403 138.851 72.8403 140.624C72.8403 142.397 74.2775 143.834 76.0503 143.834Z" fill="#F5F5FF"/>
<path d="M102.946 116.938C102.946 117.61 102.401 118.155 101.728 118.155C101.056 118.155 100.511 117.61 100.511 116.938C100.511 116.266 101.056 115.721 101.728 115.721C102.401 115.72 102.946 116.265 102.946 116.938Z" fill="#F5F5FF"/>
<path d="M49.5972 118.486C49.5972 119.77 48.5562 120.81 47.2732 120.81C45.9892 120.81 44.9492 119.769 44.9492 118.486C44.9492 117.202 45.9902 116.162 47.2732 116.162C48.5562 116.162 49.5972 117.203 49.5972 118.486Z" fill="#F5F5FF"/>
<path d="M88.2253 168.407C89.2647 168.407 90.1073 167.564 90.1073 166.525C90.1073 165.485 89.2647 164.643 88.2253 164.643C87.1859 164.643 86.3433 165.485 86.3433 166.525C86.3433 167.564 87.1859 168.407 88.2253 168.407Z" fill="#F5F5FF"/>
<path d="M48.9331 156.009C49.9112 156.009 50.7041 155.216 50.7041 154.238C50.7041 153.26 49.9112 152.467 48.9331 152.467C47.955 152.467 47.1621 153.26 47.1621 154.238C47.1621 155.216 47.955 156.009 48.9331 156.009Z" fill="#F5F5FF"/>
<path d="M93.6493 128.781C93.6493 129.637 92.9553 130.331 92.1003 130.331C91.2453 130.331 90.5503 129.637 90.5503 128.781C90.5503 127.925 91.2443 127.232 92.1003 127.232C92.9563 127.232 93.6493 127.925 93.6493 128.781Z" fill="#F5F5FF"/>
<path d="M67.0852 131.216C68.0633 131.216 68.8562 130.423 68.8562 129.445C68.8562 128.467 68.0633 127.674 67.0852 127.674C66.1071 127.674 65.3142 128.467 65.3142 129.445C65.3142 130.423 66.1071 131.216 67.0852 131.216Z" fill="#F5F5FF"/>
<path d="M77.2683 169.512C77.2683 170.001 76.8723 170.397 76.3833 170.397C75.8943 170.397 75.4983 170.001 75.4983 169.512C75.4983 169.023 75.8943 168.627 76.3833 168.627C76.8713 168.627 77.2683 169.023 77.2683 169.512Z" fill="#F5F5FF"/>
</svg>
